  0
SECTION
  2
HEADER
  9
$ACADVER
  1
AC1015
  9
$ACADMAINTVER
 70
    20
  9
$DWGCODEPAGE
  3
ANSI_950
  9
$INSBASE
 10
0.0
 20
0.0
 30
0.0
  9
$EXTMIN
 10
-17.75359993073346
 20
-17.15240410663227
 30
-0.0015258207003583
  9
$EXTMAX
 10
501.7700206974638
 20
300.0091559719401
 30
0.0000000349246037
  9
$LIMMIN
 10
50.0
 20
-30.0
  9
$LIMMAX
 10
410.0
 20
160.0
  9
$ORTHOMODE
 70
     0
  9
$REGENMODE
 70
     1
  9
$FILLMODE
 70
     1
  9
$QTEXTMODE
 70
     0
  9
$MIRRTEXT
 70
     0
  9
$LTSCALE
 40
1.0
  9
$ATTMODE
 70
     1
  9
$TEXTSIZE
 40
0.2
  9
$TRACEWID
 40
0.05
  9
$TEXTSTYLE
  7
Standard
  9
$CLAYER
  8
Lidar
  9
$CELTYPE
  6
HIDDENX2
  9
$CECOLOR
 62
   256
  9
$CELTSCALE
 40
1.0
  9
$DISPSILH
 70
     0
  9
$DIMSCALE
 40
1.0
  9
$DIMASZ
 40
3.0
  9
$DIMEXO
 40
0.0625
  9
$DIMDLI
 40
0.38
  9
$DIMRND
 40
0.0
  9
$DIMDLE
 40
0.0
  9
$DIMEXE
 40
0.18
  9
$DIMTP
 40
0.0
  9
$DIMTM
 40
0.0
  9
$DIMTXT
 40
0.18
  9
$DIMCEN
 40
0.09
  9
$DIMTSZ
 40
0.0
  9
$DIMTOL
 70
     0
  9
$DIMLIM
 70
     0
  9
$DIMTIH
 70
     1
  9
$DIMTOH
 70
     1
  9
$DIMSE1
 70
     0
  9
$DIMSE2
 70
     0
  9
$DIMTAD
 70
     0
  9
$DIMZIN
 70
     0
  9
$DIMBLK
  1

  9
$DIMASO
 70
     1
  9
$DIMSHO
 70
     1
  9
$DIMPOST
  1

  9
$DIMAPOST
  1

  9
$DIMALT
 70
     0
  9
$DIMALTD
 70
     2
  9
$DIMALTF
 40
25.4
  9
$DIMLFAC
 40
1.0
  9
$DIMTOFL
 70
     0
  9
$DIMTVP
 40
0.0
  9
$DIMTIX
 70
     0
  9
$DIMSOXD
 70
     0
  9
$DIMSAH
 70
     0
  9
$DIMBLK1
  1

  9
$DIMBLK2
  1

  9
$DIMSTYLE
  2
Standard
  9
$DIMCLRD
 70
     0
  9
$DIMCLRE
 70
     0
  9
$DIMCLRT
 70
     0
  9
$DIMTFAC
 40
1.0
  9
$DIMGAP
 40
0.09
  9
$DIMJUST
 70
     0
  9
$DIMSD1
 70
     0
  9
$DIMSD2
 70
     0
  9
$DIMTOLJ
 70
     1
  9
$DIMTZIN
 70
     0
  9
$DIMALTZ
 70
     0
  9
$DIMALTTZ
 70
     0
  9
$DIMUPT
 70
     0
  9
$DIMDEC
 70
     4
  9
$DIMTDEC
 70
     4
  9
$DIMALTU
 70
     2
  9
$DIMALTTD
 70
     2
  9
$DIMTXSTY
  7
Standard
  9
$DIMAUNIT
 70
     0
  9
$DIMADEC
 70
     0
  9
$DIMALTRND
 40
0.0
  9
$DIMAZIN
 70
     0
  9
$DIMDSEP
 70
    46
  9
$DIMATFIT
 70
     3
  9
$DIMFRAC
 70
     0
  9
$DIMLDRBLK
  1

  9
$DIMLUNIT
 70
     2
  9
$DIMLWD
 70
    -2
  9
$DIMLWE
 70
    -2
  9
$DIMTMOVE
 70
     0
  9
$LUNITS
 70
     2
  9
$LUPREC
 70
     4
  9
$SKETCHINC
 40
0.1
  9
$FILLETRAD
 40
0.0
  9
$AUNITS
 70
     0
  9
$AUPREC
 70
     0
  9
$MENU
  1
.
  9
$ELEVATION
 40
0.0
  9
$PELEVATION
 40
0.0
  9
$THICKNESS
 40
0.0
  9
$LIMCHECK
 70
     0
  9
$CHAMFERA
 40
0.0
  9
$CHAMFERB
 40
0.0
  9
$CHAMFERC
 40
0.0
  9
$CHAMFERD
 40
0.0
  9
$SKPOLY
 70
     0
  9
$TDCREATE
 40
2455531.410194225
  9
$TDUCREATE
 40
2455531.618527558
  9
$TDUPDATE
 40
2455531.505373264
  9
$TDUUPDATE
 40
2455531.713706597
  9
$TDINDWG
 40
0.0951875347
  9
$TDUSRTIMER
 40
0.0951821065
  9
$USRTIMER
 70
     1
  9
$ANGBASE
 50
0.0
  9
$ANGDIR
 70
     0
  9
$PDMODE
 70
     0
  9
$PDSIZE
 40
0.0
  9
$PLINEWID
 40
0.0
  9
$SPLFRAME
 70
     0
  9
$SPLINETYPE
 70
     6
  9
$SPLINESEGS
 70
     8
  9
$HANDSEED
  5
39A
  9
$SURFTAB1
 70
     6
  9
$SURFTAB2
 70
     6
  9
$SURFTYPE
 70
     6
  9
$SURFU
 70
     6
  9
$SURFV
 70
     6
  9
$UCSBASE
  2

  9
$UCSNAME
  2

  9
$UCSORG
 10
0.0
 20
0.0
 30
0.0
  9
$UCSXDIR
 10
1.0
 20
0.0
 30
0.0
  9
$UCSYDIR
 10
0.0
 20
1.0
 30
0.0
  9
$UCSORTHOREF
  2

  9
$UCSORTHOVIEW
 70
     0
  9
$UCSORGTOP
 10
0.0
 20
0.0
 30
0.0
  9
$UCSORGBOTTOM
 10
0.0
 20
0.0
 30
0.0
  9
$UCSORGLEFT
 10
0.0
 20
0.0
 30
0.0
  9
$UCSORGRIGHT
 10
0.0
 20
0.0
 30
0.0
  9
$UCSORGFRONT
 10
0.0
 20
0.0
 30
0.0
  9
$UCSORGBACK
 10
0.0
 20
0.0
 30
0.0
  9
$PUCSBASE
  2

  9
$PUCSNAME
  2

  9
$PUCSORG
 10
0.0
 20
0.0
 30
0.0
  9
$PUCSXDIR
 10
1.0
 20
0.0
 30
0.0
  9
$PUCSYDIR
 10
0.0
 20
1.0
 30
0.0
  9
$PUCSORTHOREF
  2

  9
$PUCSORTHOVIEW
 70
     0
  9
$PUCSORGTOP
 10
0.0
 20
0.0
 30
0.0
  9
$PUCSORGBOTTOM
 10
0.0
 20
0.0
 30
0.0
  9
$PUCSORGLEFT
 10
0.0
 20
0.0
 30
0.0
  9
$PUCSORGRIGHT
 10
0.0
 20
0.0
 30
0.0
  9
$PUCSORGFRONT
 10
0.0
 20
0.0
 30
0.0
  9
$PUCSORGBACK
 10
0.0
 20
0.0
 30
0.0
  9
$USERI1
 70
     0
  9
$USERI2
 70
     0
  9
$USERI3
 70
     0
  9
$USERI4
 70
     0
  9
$USERI5
 70
     0
  9
$USERR1
 40
0.0
  9
$USERR2
 40
0.0
  9
$USERR3
 40
0.0
  9
$USERR4
 40
0.0
  9
$USERR5
 40
0.0
  9
$WORLDVIEW
 70
     1
  9
$SHADEDGE
 70
     3
  9
$SHADEDIF
 70
    70
  9
$TILEMODE
 70
     1
  9
$MAXACTVP
 70
    64
  9
$PINSBASE
 10
0.0
 20
0.0
 30
0.0
  9
$PLIMCHECK
 70
     0
  9
$PEXTMIN
 10
0.0
 20
0.0
 30
0.0
  9
$PEXTMAX
 10
0.0
 20
0.0
 30
0.0
  9
$PLIMMIN
 10
0.0
 20
0.0
  9
$PLIMMAX
 10
12.0
 20
9.0
  9
$UNITMODE
 70
     0
  9
$VISRETAIN
 70
     1
  9
$PLINEGEN
 70
     0
  9
$PSLTSCALE
 70
     1
  9
$TREEDEPTH
 70
  3020
  9
$CMLSTYLE
  2
Standard
  9
$CMLJUST
 70
     0
  9
$CMLSCALE
 40
1.0
  9
$PROXYGRAPHICS
 70
     1
  9
$MEASUREMENT
 70
     0
  9
$CELWEIGHT
370
    -1
  9
$ENDCAPS
280
     0
  9
$JOINSTYLE
280
     0
  9
$LWDISPLAY
290
     0
  9
$INSUNITS
 70
     1
  9
$HYPERLINKBASE
  1

  9
$STYLESHEET
  1

  9
$XEDIT
290
     1
  9
$CEPSNTYPE
380
     0
  9
$PSTYLEMODE
290
     1
  9
$FINGERPRINTGUID
  2
{FDEAD576-A652-11D2-9A35-0060089B3A3F}
  9
$VERSIONGUID
  2
{660520BC-829F-4E6D-A372-E94F6EAF8356}
  9
$EXTNAMES
290
     1
  9
$PSVPSCALE
 40
0.0
  9
$OLESTARTUP
290
     0
  0
ENDSEC
  0
SECTION
  2
CLASSES
  0
CLASS
  1
ACDBDICTIONARYWDFLT
  2
AcDbDictionaryWithDefault
  3
ObjectDBX Classes
 90
        0
280
     0
281
     0
  0
CLASS
  1
ACDBPLACEHOLDER
  2
AcDbPlaceHolder
  3
ObjectDBX Classes
 90
        0
280
     0
281
     0
  0
CLASS
  1
LAYOUT
  2
AcDbLayout
  3
ObjectDBX Classes
 90
        0
280
     0
281
     0
  0
CLASS
  1
DICTIONARYVAR
  2
AcDbDictionaryVar
  3
ObjectDBX Classes
 90
        0
280
     0
281
     0
  0
CLASS
  1
DIMASSOC
  2
AcDbDimAssoc
  3
"AcDbDimAssoc|Product Desc:     AcDim ARX App For Dimension|Company:          Autodesk, Inc.|WEB Address:      www.autodesk.com"
 90
        0
280
     0
281
     0
  0
ENDSEC
  0
SECTION
  2
TABLES
  0
TABLE
  2
VPORT
  5
8
330
0
100
AcDbSymbolTable
 70
    18
  0
VPORT
  5
390
330
8
100
AcDbSymbolTableRecord
100
AcDbViewportTableRecord
  2
*Active
 70
     0
 10
0.0
 20
0.0
 11
1.0
 21
1.0
 12
218.4299065475455
 22
45.18933496926467
 13
0.0
 23
0.0
 14
0.5
 24
0.5
 15
10.0
 25
10.0
 16
0.0
 26
0.0
 36
1.0
 17
0.0
 27
0.0
 37
0.0
 40
207.9275114196
 41
2.248587570621468
 42
50.0
 43
0.0
 44
0.0
 50
0.0
 51
0.0
 71
     0
 72
  1000
 73
     1
 74
     3
 75
     0
 76
     1
 77
     0
 78
     0
281
     0
 65
     1
110
0.0
120
0.0
130
0.0
111
1.0
121
0.0
131
0.0
112
0.0
122
1.0
132
0.0
 79
     0
146
0.0
  0
ENDTAB
  0
TABLE
  2
LTYPE
  5
5
330
0
100
AcDbSymbolTable
 70
     6
  0
LTYPE
  5
14
330
5
100
AcDbSymbolTableRecord
100
AcDbLinetypeTableRecord
  2
ByBlock
 70
     0
  3

 72
    65
 73
     0
 40
0.0
  0
LTYPE
  5
15
330
5
100
AcDbSymbolTableRecord
100
AcDbLinetypeTableRecord
  2
ByLayer
 70
     0
  3

 72
    65
 73
     0
 40
0.0
  0
LTYPE
  5
16
330
5
100
AcDbSymbolTableRecord
100
AcDbLinetypeTableRecord
  2
Continuous
 70
     0
  3
Solid line
 72
    65
 73
     0
 40
0.0
  0
LTYPE
  5
BA
330
5
100
AcDbSymbolTableRecord
100
AcDbLinetypeTableRecord
  2
ACAD_ISO02W100
 70
     0
  3
ISO dash __ __ __ __ __ __ __ __ __ __ __ __ __
 72
    65
 73
     2
 40
15.0
 49
12.0
 74
     0
 49
-3.0
 74
     0
  0
LTYPE
  5
BB
330
5
100
AcDbSymbolTableRecord
100
AcDbLinetypeTableRecord
  2
DASHED2
 70
     0
  3
Dashed (.5x) _ _ _ _ _ _ _ _ _ _ _ _ _ _ _ _ _
 72
    65
 73
     2
 40
0.375
 49
0.25
 74
     0
 49
-0.125
 74
     0
  0
LTYPE
  5
BE
330
5
100
AcDbSymbolTableRecord
100
AcDbLinetypeTableRecord
  2
HIDDEN
 70
     0
  3
Hidden __ __ __ __ __ __ __ __ __ __ __ __ __ _
 72
    65
 73
     2
 40
0.375
 49
0.25
 74
     0
 49
-0.125
 74
     0
  0
LTYPE
  5
BF
330
5
100
AcDbSymbolTableRecord
100
AcDbLinetypeTableRecord
  2
HIDDENX2
 70
     0
  3
Hidden (2x) ____ ____ ____ ____ ____ ____ ____
 72
    65
 73
     2
 40
0.75
 49
0.5
 74
     0
 49
-0.25
 74
     0
  0
LTYPE
  5
C0
330
5
100
AcDbSymbolTableRecord
100
AcDbLinetypeTableRecord
  2
HIDDEN2
 70
     0
  3
Hidden (.5x) _ _ _ _ _ _ _ _ _ _ _ _ _ _ _ _ _
 72
    65
 73
     2
 40
0.1875
 49
0.125
 74
     0
 49
-0.0625
 74
     0
  0
ENDTAB
  0
TABLE
  2
LAYER
  5
2
330
0
100
AcDbSymbolTable
 70
     5
  0
LAYER
  5
10
330
2
100
AcDbSymbolTableRecord
100
AcDbLayerTableRecord
  2
0
 70
     0
 62
     7
  6
Continuous
370
    -3
390
F
  0
LAYER
  5
8A
330
2
100
AcDbSymbolTableRecord
100
AcDbLayerTableRecord
  2
DrawingLine
 70
     0
 62
   -10
  6
Continuous
370
    -3
390
F
  0
LAYER
  5
8B
330
2
100
AcDbSymbolTableRecord
100
AcDbLayerTableRecord
  2
Lidar
 70
     0
 62
   160
  6
Continuous
370
    -3
390
F
  0
LAYER
  5
8C
330
2
100
AcDbSymbolTableRecord
100
AcDbLayerTableRecord
  2
Dimension
 70
     0
 62
    80
  6
Continuous
370
    -3
390
F
  0
LAYER
  5
FB
330
2
100
AcDbSymbolTableRecord
100
AcDbLayerTableRecord
  2
Defpoints
 70
     0
 62
     7
  6
Continuous
290
     0
370
    -3
390
F
  0
ENDTAB
  0
TABLE
  2
STYLE
  5
3
330
0
100
AcDbSymbolTable
 70
     2
  0
STYLE
  5
11
330
3
100
AcDbSymbolTableRecord
100
AcDbTextStyleTableRecord
  2
Standard
 70
     0
 40
5.0
 41
1.0
 50
0.0
 71
     0
 42
0.2
  3
txt.shx
  4
bigfont.shx
  0
STYLE
  5
B9
330
3
100
AcDbSymbolTableRecord
100
AcDbTextStyleTableRecord
  2

 70
     1
 40
0.0
 41
1.0
 50
0.0
 71
     0
 42
0.2
  3
ltypeshp.shx
  4

  0
ENDTAB
  0
TABLE
  2
VIEW
  5
6
330
0
100
AcDbSymbolTable
 70
     0
  0
ENDTAB
  0
TABLE
  2
UCS
  5
7
330
0
100
AcDbSymbolTable
 70
     0
  0
ENDTAB
  0
TABLE
  2
APPID
  5
9
330
0
100
AcDbSymbolTable
 70
     1
  0
APPID
  5
12
330
9
100
AcDbSymbolTableRecord
100
AcDbRegAppTableRecord
  2
ACAD
 70
     0
  0
ENDTAB
  0
TABLE
  2
DIMSTYLE
  5
A
330
0
100
AcDbSymbolTable
 70
     1
100
AcDbDimStyleTable
 71
     1
340
27
  0
DIMSTYLE
105
27
102
{ACAD_REACTORS
330
FA
330
15C
330
176
330
19A
330
1DD
330
1F7
330
211
330
22B
330
245
330
269
330
283
330
29F
330
2C1
330
301
330
345
330
366
102
}
330
A
100
AcDbSymbolTableRecord
100
AcDbDimStyleTableRecord
  2
Standard
 70
     0
 41
3.0
340
11
  0
ENDTAB
  0
TABLE
  2
BLOCK_RECORD
  5
1
330
0
100
AcDbSymbolTable
 70
    17
  0
BLOCK_RECORD
  5
1F
330
1
100
AcDbSymbolTableRecord
100
AcDbBlockTableRecord
  2
*Model_Space
340
22
  0
BLOCK_RECORD
  5
58
330
1
100
AcDbSymbolTableRecord
100
AcDbBlockTableRecord
  2
*Paper_Space
340
59
  0
BLOCK_RECORD
  5
5D
330
1
100
AcDbSymbolTableRecord
100
AcDbBlockTableRecord
  2
*Paper_Space0
340
5E
  0
BLOCK_RECORD
  5
FC
330
1
100
AcDbSymbolTableRecord
100
AcDbBlockTableRecord
  2
*D1
340
0
  0
BLOCK_RECORD
  5
15D
330
1
100
AcDbSymbolTableRecord
100
AcDbBlockTableRecord
  2
*D2
340
0
  0
BLOCK_RECORD
  5
177
330
1
100
AcDbSymbolTableRecord
100
AcDbBlockTableRecord
  2
*D3
340
0
  0
BLOCK_RECORD
  5
19B
330
1
100
AcDbSymbolTableRecord
100
AcDbBlockTableRecord
  2
*D4
340
0
  0
BLOCK_RECORD
  5
1DE
330
1
100
AcDbSymbolTableRecord
100
AcDbBlockTableRecord
  2
*D5
340
0
  0
BLOCK_RECORD
  5
1F8
330
1
100
AcDbSymbolTableRecord
100
AcDbBlockTableRecord
  2
*D6
340
0
  0
BLOCK_RECORD
  5
212
330
1
100
AcDbSymbolTableRecord
100
AcDbBlockTableRecord
  2
*D7
340
0
  0
BLOCK_RECORD
  5
22C
330
1
100
AcDbSymbolTableRecord
100
AcDbBlockTableRecord
  2
*D8
340
0
  0
BLOCK_RECORD
  5
246
330
1
100
AcDbSymbolTableRecord
100
AcDbBlockTableRecord
  2
*D9
340
0
  0
BLOCK_RECORD
  5
26A
330
1
100
AcDbSymbolTableRecord
100
AcDbBlockTableRecord
  2
*D10
340
0
  0
BLOCK_RECORD
  5
284
330
1
100
AcDbSymbolTableRecord
100
AcDbBlockTableRecord
  2
*D11
340
0
  0
BLOCK_RECORD
  5
2A0
330
1
100
AcDbSymbolTableRecord
100
AcDbBlockTableRecord
  2
*D12
340
0
  0
BLOCK_RECORD
  5
2C2
330
1
100
AcDbSymbolTableRecord
100
AcDbBlockTableRecord
  2
*D13
340
0
  0
BLOCK_RECORD
  5
302
330
1
100
AcDbSymbolTableRecord
100
AcDbBlockTableRecord
  2
*D14
340
0
  0
BLOCK_RECORD
  5
346
330
1
100
AcDbSymbolTableRecord
100
AcDbBlockTableRecord
  2
*D15
340
0
  0
BLOCK_RECORD
  5
367
330
1
100
AcDbSymbolTableRecord
100
AcDbBlockTableRecord
  2
*D16
340
0
  0
ENDTAB
  0
ENDSEC
  0
SECTION
  2
BLOCKS
  0
BLOCK
  5
20
330
1F
100
AcDbEntity
  8
0
100
AcDbBlockBegin
  2
*Model_Space
 70
     0
 10
0.0
 20
0.0
 30
0.0
  3
*Model_Space
  1

  0
ENDBLK
  5
21
330
1F
100
AcDbEntity
  8
0
100
AcDbBlockEnd
  0
BLOCK
  5
5A
330
58
100
AcDbEntity
 67
     1
  8
0
100
AcDbBlockBegin
  2
*Paper_Space
 70
     0
 10
0.0
 20
0.0
 30
0.0
  3
*Paper_Space
  1

  0
ENDBLK
  5
5B
330
58
100
AcDbEntity
 67
     1
  8
0
100
AcDbBlockEnd
  0
BLOCK
  5
5F
330
5D
100
AcDbEntity
  8
0
100
AcDbBlockBegin
  2
*Paper_Space0
 70
     0
 10
0.0
 20
0.0
 30
0.0
  3
*Paper_Space0
  1

  0
ENDBLK
  5
60
330
5D
100
AcDbEntity
  8
0
100
AcDbBlockEnd
  0
BLOCK
  5
107
330
FC
100
AcDbEntity
  8
0
100
AcDbBlockBegin
  2
*D1
 70
     1
 10
0.0
 20
0.0
 30
0.0
  3
*D1
  1

  0
LINE
  5
152
330
FC
100
AcDbEntity
  8
Dimension
 62
     0
370
    -2
100
AcDbLine
 10
163.12
 20
93.3825
 30
0.0
 11
163.12
 21
124.70006989921
 31
0.0
  0
LINE
  5
153
330
FC
100
AcDbEntity
  8
Dimension
 62
     0
370
    -2
100
AcDbLine
 10
236.88
 20
93.3825
 30
0.0
 11
236.88
 21
124.70006989921
 31
0.0
  0
LINE
  5
154
330
FC
100
AcDbEntity
  8
Dimension
 62
     0
370
    -2
100
AcDbLine
 10
166.12
 20
124.52006989921
 30
0.0
 11
185.7433333333333
 21
124.52006989921
 31
0.0
  0
LINE
  5
155
330
FC
100
AcDbEntity
  8
Dimension
 62
     0
370
    -2
100
AcDbLine
 10
233.88
 20
124.52006989921
 30
0.0
 11
214.2566666666667
 21
124.52006989921
 31
0.0
  0
SOLID
  5
156
330
FC
100
AcDbEntity
  8
Dimension
 62
     0
100
AcDbTrace
 10
166.12
 20
125.02006989921
 30
0.0
 11
166.12
 21
124.02006989921
 31
0.0
 12
163.12
 22
124.52006989921
 32
0.0
 13
163.12
 23
124.52006989921
 33
0.0
  0
SOLID
  5
157
330
FC
100
AcDbEntity
  8
Dimension
 62
     0
100
AcDbTrace
 10
233.88
 20
125.02006989921
 30
0.0
 11
233.88
 21
124.02006989921
 31
0.0
 12
236.88
 22
124.52006989921
 32
0.0
 13
236.88
 23
124.52006989921
 33
0.0
  0
MTEXT
  5
158
330
FC
100
AcDbEntity
  8
Dimension
 62
     0
100
AcDbMText
 10
200.0
 20
124.52006989921
 30
0.0
 40
5.0
 41
0.0
 71
     5
 72
     1
  1
\A1;73.7600
 73
     1
 44
1.0
1001
ACAD
1000
MTEXTBEGIN
1070
    73
1070
     1
1070
    44
1040
1.0
1070
    74
1070
     0
1000
MTEXTEND
  0
POINT
  5
159
330
FC
100
AcDbEntity
  8
Defpoints
 62
     0
100
AcDbPoint
 10
163.12
 20
93.31999999999998
 30
0.0
  0
POINT
  5
15A
330
FC
100
AcDbEntity
  8
Defpoints
 62
     0
100
AcDbPoint
 10
236.88
 20
93.31999999999998
 30
0.0
  0
POINT
  5
15B
330
FC
100
AcDbEntity
  8
Defpoints
 62
     0
100
AcDbPoint
 10
236.88
 20
124.52006989921
 30
0.0
  0
ENDBLK
  5
108
330
FC
100
AcDbEntity
  8
0
100
AcDbBlockEnd
  0
BLOCK
  5
168
330
15D
100
AcDbEntity
  8
0
100
AcDbBlockBegin
  2
*D2
 70
     1
 10
0.0
 20
0.0
 30
0.0
  3
*D2
  1

  0
LINE
  5
1C8
330
15D
100
AcDbEntity
  8
Dimension
 62
     0
370
    -2
100
AcDbLine
 10
199.9375
 20
108.37
 30
0.0
 11
118.7592307365238
 21
108.37
 31
0.0
  0
LINE
  5
1C9
330
15D
100
AcDbEntity
  8
Dimension
 62
     0
370
    -2
100
AcDbLine
 10
199.9375
 20
29.87
 30
0.0
 11
118.7592307365237
 21
29.87000000000003
 31
0.0
  0
LINE
  5
1CA
330
15D
100
AcDbEntity
  8
Dimension
 62
     0
370
    -2
100
AcDbLine
 10
118.9392307365238
 20
105.37
 30
0.0
 11
118.9392307365238
 21
71.71000000000002
 31
0.0
  0
LINE
  5
1CB
330
15D
100
AcDbEntity
  8
Dimension
 62
     0
370
    -2
100
AcDbLine
 10
118.9392307365238
 20
32.87000000000002
 30
0.0
 11
118.9392307365238
 21
66.53000000000002
 31
0.0
  0
SOLID
  5
1CC
330
15D
100
AcDbEntity
  8
Dimension
 62
     0
100
AcDbTrace
 10
118.4392307365238
 20
105.37
 30
0.0
 11
119.4392307365238
 21
105.37
 31
0.0
 12
118.9392307365238
 22
108.37
 32
0.0
 13
118.9392307365238
 23
108.37
 33
0.0
  0
SOLID
  5
1CD
330
15D
100
AcDbEntity
  8
Dimension
 62
     0
100
AcDbTrace
 10
118.4392307365238
 20
32.87000000000002
 30
0.0
 11
119.4392307365238
 21
32.87000000000002
 31
0.0
 12
118.9392307365237
 22
29.87000000000003
 32
0.0
 13
118.9392307365237
 23
29.87000000000003
 33
0.0
  0
MTEXT
  5
1CE
330
15D
100
AcDbEntity
  8
Dimension
 62
     0
100
AcDbMText
 10
118.9392307365237
 20
69.12000000000003
 30
0.0
 40
5.0
 41
0.0
 71
     5
 72
     1
  1
\A1;78.5000
 73
     1
 44
1.0
1001
ACAD
1000
MTEXTBEGIN
1070
    73
1070
     1
1070
    44
1040
1.0
1070
    74
1070
     0
1000
MTEXTEND
  0
POINT
  5
1CF
330
15D
100
AcDbEntity
  8
Defpoints
 62
     0
100
AcDbPoint
 10
200.0
 20
108.37
 30
0.0
  0
POINT
  5
1D0
330
15D
100
AcDbEntity
  8
Defpoints
 62
     0
100
AcDbPoint
 10
200.0
 20
29.87
 30
0.0
  0
POINT
  5
1D1
330
15D
100
AcDbEntity
  8
Defpoints
 62
     0
100
AcDbPoint
 10
118.9392307365237
 20
29.87000000000003
 30
0.0
  0
ENDBLK
  5
169
330
15D
100
AcDbEntity
  8
0
100
AcDbBlockEnd
  0
BLOCK
  5
182
330
177
100
AcDbEntity
  8
0
100
AcDbBlockBegin
  2
*D3
 70
     1
 10
0.0
 20
0.0
 30
0.0
  3
*D3
  1

  0
LINE
  5
1BE
330
177
100
AcDbEntity
  8
Dimension
 62
     0
370
    -2
100
AcDbLine
 10
163.0575
 20
93.31999999999998
 30
0.0
 11
138.0627323902104
 21
93.32
 31
0.0
  0
LINE
  5
1BF
330
177
100
AcDbEntity
  8
Dimension
 62
     0
370
    -2
100
AcDbLine
 10
178.0175
 20
19.87
 30
0.0
 11
138.0627323902104
 21
19.87000000000001
 31
0.0
  0
LINE
  5
1C0
330
177
100
AcDbEntity
  8
Dimension
 62
     0
370
    -2
100
AcDbLine
 10
138.2427323902104
 20
90.32000000000001
 30
0.0
 11
138.2427323902104
 21
59.18500000000003
 31
0.0
  0
LINE
  5
1C1
330
177
100
AcDbEntity
  8
Dimension
 62
     0
370
    -2
100
AcDbLine
 10
138.2427323902104
 20
22.87000000000001
 30
0.0
 11
138.2427323902104
 21
54.00500000000002
 31
0.0
  0
SOLID
  5
1C2
330
177
100
AcDbEntity
  8
Dimension
 62
     0
100
AcDbTrace
 10
137.7427323902105
 20
90.32000000000001
 30
0.0
 11
138.7427323902105
 21
90.32000000000001
 31
0.0
 12
138.2427323902104
 22
93.32
 32
0.0
 13
138.2427323902104
 23
93.32
 33
0.0
  0
SOLID
  5
1C3
330
177
100
AcDbEntity
  8
Dimension
 62
     0
100
AcDbTrace
 10
137.7427323902104
 20
22.87000000000001
 30
0.0
 11
138.7427323902104
 21
22.87000000000001
 31
0.0
 12
138.2427323902104
 22
19.87000000000001
 32
0.0
 13
138.2427323902104
 23
19.87000000000001
 33
0.0
  0
MTEXT
  5
1C4
330
177
100
AcDbEntity
  8
Dimension
 62
     0
100
AcDbMText
 10
138.2427323902104
 20
56.59500000000004
 30
0.0
 40
5.0
 41
0.0
 71
     5
 72
     1
  1
\A1;73.4500
 73
     1
 44
1.0
1001
ACAD
1000
MTEXTBEGIN
1070
    73
1070
     1
1070
    44
1040
1.0
1070
    74
1070
     0
1000
MTEXTEND
  0
POINT
  5
1C5
330
177
100
AcDbEntity
  8
Defpoints
 62
     0
100
AcDbPoint
 10
163.12
 20
93.31999999999998
 30
0.0
  0
POINT
  5
1C6
330
177
100
AcDbEntity
  8
Defpoints
 62
     0
100
AcDbPoint
 10
178.08
 20
19.87
 30
0.0
  0
POINT
  5
1C7
330
177
100
AcDbEntity
  8
Defpoints
 62
     0
100
AcDbPoint
 10
138.2427323902104
 20
19.87000000000001
 30
0.0
  0
ENDBLK
  5
183
330
177
100
AcDbEntity
  8
0
100
AcDbBlockEnd
  0
BLOCK
  5
1A6
330
19B
100
AcDbEntity
  8
0
100
AcDbBlockBegin
  2
*D4
 70
     1
 10
0.0
 20
0.0
 30
0.0
  3
*D4
  1

  0
LINE
  5
1D2
330
19B
100
AcDbEntity
  8
Dimension
 62
     0
370
    -2
100
AcDbLine
 10
200.0522488131632
 20
0.0000000000000036
 30
0.0
 11
96.58293143386583
 21
0.0000000000000329
 31
0.0
  0
LINE
  5
1D3
330
19B
100
AcDbEntity
  8
Dimension
 62
     0
370
    -2
100
AcDbLine
 10
199.9375
 20
115.05
 30
0.0
 11
96.58293143386586
 21
115.05
 31
0.0
  0
LINE
  5
1D4
330
19B
100
AcDbEntity
  8
Dimension
 62
     0
370
    -2
100
AcDbLine
 10
96.76293143386583
 20
3.000000000000032
 30
0.0
 11
96.76293143386585
 21
54.93500000000003
 31
0.0
  0
LINE
  5
1D5
330
19B
100
AcDbEntity
  8
Dimension
 62
     0
370
    -2
100
AcDbLine
 10
96.76293143386587
 20
112.05
 30
0.0
 11
96.76293143386585
 21
60.11500000000004
 31
0.0
  0
SOLID
  5
1D6
330
19B
100
AcDbEntity
  8
Dimension
 62
     0
100
AcDbTrace
 10
96.26293143386583
 20
3.000000000000032
 30
0.0
 11
97.26293143386584
 21
3.000000000000032
 31
0.0
 12
96.76293143386583
 22
0.0000000000000328
 32
0.0
 13
96.76293143386583
 23
0.0000000000000328
 33
0.0
  0
SOLID
  5
1D7
330
19B
100
AcDbEntity
  8
Dimension
 62
     0
100
AcDbTrace
 10
96.26293143386586
 20
112.05
 30
0.0
 11
97.26293143386586
 21
112.05
 31
0.0
 12
96.76293143386587
 22
115.05
 32
0.0
 13
96.76293143386587
 23
115.05
 33
0.0
  0
MTEXT
  5
1D8
330
19B
100
AcDbEntity
  8
Dimension
 62
     0
100
AcDbMText
 10
96.76293143386583
 20
57.52500000000004
 30
0.0
 40
5.0
 41
0.0
 71
     5
 72
     1
  1
\A1;115.0500
 73
     1
 44
1.0
1001
ACAD
1000
MTEXTBEGIN
1070
    73
1070
     1
1070
    44
1040
1.0
1070
    74
1070
     0
1000
MTEXTEND
  0
POINT
  5
1D9
330
19B
100
AcDbEntity
  8
Defpoints
 62
     0
100
AcDbPoint
 10
200.1147488131632
 20
0.0000000000000036
 30
0.0
  0
POINT
  5
1DA
330
19B
100
AcDbEntity
  8
Defpoints
 62
     0
100
AcDbPoint
 10
200.0
 20
115.05
 30
0.0
  0
POINT
  5
1DB
330
19B
100
AcDbEntity
  8
Defpoints
 62
     0
100
AcDbPoint
 10
96.76293143386587
 20
115.05
 30
0.0
  0
ENDBLK
  5
1A7
330
19B
100
AcDbEntity
  8
0
100
AcDbBlockEnd
  0
BLOCK
  5
1E9
330
1DE
100
AcDbEntity
  8
0
100
AcDbBlockBegin
  2
*D5
 70
     1
 10
0.0
 20
0.0
 30
0.0
  3
*D5
  1

  0
LINE
  5
1EC
330
1DE
100
AcDbEntity
  8
Dimension
 62
     0
370
    -2
100
AcDbLine
 10
151.6350000000001
 20
69.1825
 30
0.0
 11
151.6350000000001
 21
136.8171625980827
 31
0.0
  0
LINE
  5
1ED
330
1DE
100
AcDbEntity
  8
Dimension
 62
     0
370
    -2
100
AcDbLine
 10
248.365
 20
69.1825000000008
 30
0.0
 11
248.365
 21
136.8171625980827
 31
0.0
  0
LINE
  5
1EE
330
1DE
100
AcDbEntity
  8
Dimension
 62
     0
370
    -2
100
AcDbLine
 10
154.6350000000001
 20
136.6371625980827
 30
0.0
 11
185.7433333333334
 21
136.6371625980827
 31
0.0
  0
LINE
  5
1EF
330
1DE
100
AcDbEntity
  8
Dimension
 62
     0
370
    -2
100
AcDbLine
 10
245.365
 20
136.6371625980827
 30
0.0
 11
214.2566666666667
 21
136.6371625980827
 31
0.0
  0
SOLID
  5
1F0
330
1DE
100
AcDbEntity
  8
Dimension
 62
     0
100
AcDbTrace
 10
154.6350000000001
 20
137.1371625980827
 30
0.0
 11
154.6350000000001
 21
136.1371625980827
 31
0.0
 12
151.6350000000001
 22
136.6371625980827
 32
0.0
 13
151.6350000000001
 23
136.6371625980827
 33
0.0
  0
SOLID
  5
1F1
330
1DE
100
AcDbEntity
  8
Dimension
 62
     0
100
AcDbTrace
 10
245.365
 20
137.1371625980827
 30
0.0
 11
245.365
 21
136.1371625980827
 31
0.0
 12
248.365
 22
136.6371625980827
 32
0.0
 13
248.365
 23
136.6371625980827
 33
0.0
  0
MTEXT
  5
1F2
330
1DE
100
AcDbEntity
  8
Dimension
 62
     0
100
AcDbMText
 10
200.0
 20
136.6371625980827
 30
0.0
 40
5.0
 41
0.0
 71
     5
 72
     1
  1
\A1;96.7300
 73
     1
 44
1.0
1001
ACAD
1000
MTEXTBEGIN
1070
    73
1070
     1
1070
    44
1040
1.0
1070
    74
1070
     0
1000
MTEXTEND
  0
POINT
  5
1F3
330
1DE
100
AcDbEntity
  8
Defpoints
 62
     0
100
AcDbPoint
 10
151.6350000000001
 20
69.12
 30
0.0
  0
POINT
  5
1F4
330
1DE
100
AcDbEntity
  8
Defpoints
 62
     0
100
AcDbPoint
 10
248.365
 20
69.1200000000008
 30
0.0
  0
POINT
  5
1F5
330
1DE
100
AcDbEntity
  8
Defpoints
 62
     0
100
AcDbPoint
 10
248.365
 20
136.6371625980827
 30
0.0
  0
ENDBLK
  5
1EA
330
1DE
100
AcDbEntity
  8
0
100
AcDbBlockEnd
  0
BLOCK
  5
203
330
1F8
100
AcDbEntity
  8
0
100
AcDbBlockBegin
  2
*D6
 70
     1
 10
0.0
 20
0.0
 30
0.0
  3
*D6
  1

  0
LINE
  5
33B
330
1F8
100
AcDbEntity
  8
Dimension
 62
     0
370
    -2
100
AcDbLine
 10
282.25
 20
108.4325
 30
0.0
 11
282.25
 21
132.7511808704445
 31
0.0
  0
LINE
  5
33C
330
1F8
100
AcDbEntity
  8
Dimension
 62
     0
370
    -2
100
AcDbLine
 10
300.0
 20
108.4325
 30
0.0
 11
300.0
 21
132.7511808704445
 31
0.0
  0
LINE
  5
33D
330
1F8
100
AcDbEntity
  8
Dimension
 62
     0
370
    -2
100
AcDbLine
 10
285.25
 20
132.5711808704445
 30
0.0
 11
297.0
 21
132.5711808704445
 31
0.0
  0
LINE
  5
33E
330
1F8
100
AcDbEntity
  8
Dimension
 62
     0
370
    -2
100
AcDbLine
 10
300.0
 20
132.5711808704445
 30
0.0
 11
303.0
 21
132.5711808704445
 31
0.0
  0
SOLID
  5
33F
330
1F8
100
AcDbEntity
  8
Dimension
 62
     0
100
AcDbTrace
 10
285.25
 20
133.0711808704445
 30
0.0
 11
285.25
 21
132.0711808704445
 31
0.0
 12
282.25
 22
132.5711808704445
 32
0.0
 13
282.25
 23
132.5711808704445
 33
0.0
  0
SOLID
  5
340
330
1F8
100
AcDbEntity
  8
Dimension
 62
     0
100
AcDbTrace
 10
297.0
 20
133.0711808704445
 30
0.0
 11
297.0
 21
132.0711808704445
 31
0.0
 12
300.0
 22
132.5711808704445
 32
0.0
 13
300.0
 23
132.5711808704445
 33
0.0
  0
MTEXT
  5
341
330
1F8
100
AcDbEntity
  8
Dimension
 62
     0
100
AcDbMText
 10
316.4233333333334
 20
132.5711808704445
 30
0.0
 40
5.0
 41
0.0
 71
     5
 72
     1
  1
\A1;17.7500
 73
     1
 44
1.0
1001
ACAD
1000
MTEXTBEGIN
1070
    73
1070
     1
1070
    44
1040
1.0
1070
    74
1070
     0
1000
MTEXTEND
  0
POINT
  5
342
330
1F8
100
AcDbEntity
  8
Defpoints
 62
     0
100
AcDbPoint
 10
282.25
 20
108.37
 30
0.0
  0
POINT
  5
343
330
1F8
100
AcDbEntity
  8
Defpoints
 62
     0
100
AcDbPoint
 10
300.0
 20
108.37
 30
0.0
  0
POINT
  5
344
330
1F8
100
AcDbEntity
  8
Defpoints
 62
     0
100
AcDbPoint
 10
300.0
 20
132.5711808704445
 30
0.0
  0
ENDBLK
  5
204
330
1F8
100
AcDbEntity
  8
0
100
AcDbBlockEnd
  0
BLOCK
  5
21D
330
212
100
AcDbEntity
  8
0
100
AcDbBlockBegin
  2
*D7
 70
     1
 10
0.0
 20
0.0
 30
0.0
  3
*D7
  1

  0
LINE
  5
331
330
212
100
AcDbEntity
  8
Dimension
 62
     0
370
    -2
100
AcDbLine
 10
300.0
 20
115.1125
 30
0.0
 11
300.0
 21
125.2930721735055
 31
0.0
  0
LINE
  5
332
330
212
100
AcDbEntity
  8
Dimension
 62
     0
370
    -2
100
AcDbLine
 10
311.3
 20
115.1125
 30
0.0
 11
311.3
 21
125.2930721735055
 31
0.0
  0
LINE
  5
333
330
212
100
AcDbEntity
  8
Dimension
 62
     0
370
    -2
100
AcDbLine
 10
303.0
 20
125.1130721735055
 30
0.0
 11
308.3
 21
125.1130721735055
 31
0.0
  0
LINE
  5
334
330
212
100
AcDbEntity
  8
Dimension
 62
     0
370
    -2
100
AcDbLine
 10
311.3
 20
125.1130721735055
 30
0.0
 11
314.3
 21
125.1130721735055
 31
0.0
  0
SOLID
  5
335
330
212
100
AcDbEntity
  8
Dimension
 62
     0
100
AcDbTrace
 10
303.0
 20
125.6130721735055
 30
0.0
 11
303.0
 21
124.6130721735055
 31
0.0
 12
300.0
 22
125.1130721735055
 32
0.0
 13
300.0
 23
125.1130721735055
 33
0.0
  0
SOLID
  5
336
330
212
100
AcDbEntity
  8
Dimension
 62
     0
100
AcDbTrace
 10
308.3
 20
125.6130721735055
 30
0.0
 11
308.3
 21
124.6130721735055
 31
0.0
 12
311.3
 22
125.1130721735055
 32
0.0
 13
311.3
 23
125.1130721735055
 33
0.0
  0
MTEXT
  5
337
330
212
100
AcDbEntity
  8
Dimension
 62
     0
100
AcDbMText
 10
326.4733333333333
 20
125.1130721735055
 30
0.0
 40
5.0
 41
0.0
 71
     5
 72
     1
  1
\A1;11.3000
 73
     1
 44
1.0
1001
ACAD
1000
MTEXTBEGIN
1070
    73
1070
     1
1070
    44
1040
1.0
1070
    74
1070
     0
1000
MTEXTEND
  0
POINT
  5
338
330
212
100
AcDbEntity
  8
Defpoints
 62
     0
100
AcDbPoint
 10
300.0
 20
115.05
 30
0.0
  0
POINT
  5
339
330
212
100
AcDbEntity
  8
Defpoints
 62
     0
100
AcDbPoint
 10
311.3
 20
115.05
 30
0.0
  0
POINT
  5
33A
330
212
100
AcDbEntity
  8
Defpoints
 62
     0
100
AcDbPoint
 10
311.3
 20
125.1130721735055
 30
0.0
  0
ENDBLK
  5
21E
330
212
100
AcDbEntity
  8
0
100
AcDbBlockEnd
  0
BLOCK
  5
237
330
22C
100
AcDbEntity
  8
0
100
AcDbBlockBegin
  2
*D8
 70
     1
 10
0.0
 20
0.0
 30
0.0
  3
*D8
  1

  0
LINE
  5
327
330
22C
100
AcDbEntity
  8
Dimension
 62
     0
370
    -2
100
AcDbLine
 10
311.3
 20
98.1325
 30
0.0
 11
311.3
 21
110.3768533668881
 31
0.0
  0
LINE
  5
328
330
22C
100
AcDbEntity
  8
Dimension
 62
     0
370
    -2
100
AcDbLine
 10
318.9
 20
98.1325
 30
0.0
 11
318.9
 21
110.3768533668881
 31
0.0
  0
LINE
  5
329
330
22C
100
AcDbEntity
  8
Dimension
 62
     0
370
    -2
100
AcDbLine
 10
314.3
 20
110.1968533668881
 30
0.0
 11
315.9
 21
110.1968533668881
 31
0.0
  0
LINE
  5
32A
330
22C
100
AcDbEntity
  8
Dimension
 62
     0
370
    -2
100
AcDbLine
 10
318.9
 20
110.1968533668881
 30
0.0
 11
321.9
 21
110.1968533668881
 31
0.0
  0
SOLID
  5
32B
330
22C
100
AcDbEntity
  8
Dimension
 62
     0
100
AcDbTrace
 10
314.3
 20
110.6968533668881
 30
0.0
 11
314.3
 21
109.6968533668881
 31
0.0
 12
311.3
 22
110.1968533668881
 32
0.0
 13
311.3
 23
110.1968533668881
 33
0.0
  0
SOLID
  5
32C
330
22C
100
AcDbEntity
  8
Dimension
 62
     0
100
AcDbTrace
 10
315.9
 20
110.6968533668881
 30
0.0
 11
315.9
 21
109.6968533668881
 31
0.0
 12
318.9
 22
110.1968533668881
 32
0.0
 13
318.9
 23
110.1968533668881
 33
0.0
  0
MTEXT
  5
32D
330
22C
100
AcDbEntity
  8
Dimension
 62
     0
100
AcDbMText
 10
333.24
 20
110.1968533668881
 30
0.0
 40
5.0
 41
0.0
 71
     5
 72
     1
  1
\A1;7.6000
 73
     1
 44
1.0
1001
ACAD
1000
MTEXTBEGIN
1070
    73
1070
     1
1070
    44
1040
1.0
1070
    74
1070
     0
1000
MTEXTEND
  0
POINT
  5
32E
330
22C
100
AcDbEntity
  8
Defpoints
 62
     0
100
AcDbPoint
 10
311.3
 20
98.07
 30
0.0
  0
POINT
  5
32F
330
22C
100
AcDbEntity
  8
Defpoints
 62
     0
100
AcDbPoint
 10
318.9
 20
98.07
 30
0.0
  0
POINT
  5
330
330
22C
100
AcDbEntity
  8
Defpoints
 62
     0
100
AcDbPoint
 10
318.9
 20
110.1968533668881
 30
0.0
  0
ENDBLK
  5
238
330
22C
100
AcDbEntity
  8
0
100
AcDbBlockEnd
  0
BLOCK
  5
251
330
246
100
AcDbEntity
  8
0
100
AcDbBlockBegin
  2
*D9
 70
     1
 10
0.0
 20
0.0
 30
0.0
  3
*D9
  1

  0
LINE
  5
25F
330
246
100
AcDbEntity
  8
Dimension
 62
     0
370
    -2
100
AcDbLine
 10
334.36
 20
12.90285784411435
 30
0.0
 11
334.36
 21
-14.65160860367648
 31
0.0
  0
LINE
  5
260
330
246
100
AcDbEntity
  8
Dimension
 62
     0
370
    -2
100
AcDbLine
 10
282.25
 20
29.8075
 30
0.0
 11
282.25
 21
-14.65160860367649
 31
0.0
  0
LINE
  5
261
330
246
100
AcDbEntity
  8
Dimension
 62
     0
370
    -2
100
AcDbLine
 10
331.36
 20
-14.47160860367648
 30
0.0
 11
320.895
 21
-14.47160860367648
 31
0.0
  0
LINE
  5
262
330
246
100
AcDbEntity
  8
Dimension
 62
     0
370
    -2
100
AcDbLine
 10
285.25
 20
-14.47160860367648
 30
0.0
 11
295.715
 21
-14.47160860367648
 31
0.0
  0
SOLID
  5
263
330
246
100
AcDbEntity
  8
Dimension
 62
     0
100
AcDbTrace
 10
331.36
 20
-13.97160860367648
 30
0.0
 11
331.36
 21
-14.97160860367648
 31
0.0
 12
334.36
 22
-14.47160860367648
 32
0.0
 13
334.36
 23
-14.47160860367648
 33
0.0
  0
SOLID
  5
264
330
246
100
AcDbEntity
  8
Dimension
 62
     0
100
AcDbTrace
 10
285.25
 20
-13.97160860367648
 30
0.0
 11
285.25
 21
-14.97160860367648
 31
0.0
 12
282.25
 22
-14.47160860367648
 32
0.0
 13
282.25
 23
-14.47160860367648
 33
0.0
  0
MTEXT
  5
265
330
246
100
AcDbEntity
  8
Dimension
 62
     0
100
AcDbMText
 10
308.305
 20
-14.47160860367648
 30
0.0
 40
5.0
 41
0.0
 71
     5
 72
     1
  1
\A1;52.1100
 73
     1
 44
1.0
1001
ACAD
1000
MTEXTBEGIN
1070
    73
1070
     1
1070
    44
1040
1.0
1070
    74
1070
     0
1000
MTEXTEND
  0
POINT
  5
266
330
246
100
AcDbEntity
  8
Defpoints
 62
     0
100
AcDbPoint
 10
334.36
 20
12.96535784411435
 30
0.0
  0
POINT
  5
267
330
246
100
AcDbEntity
  8
Defpoints
 62
     0
100
AcDbPoint
 10
282.25
 20
29.87
 30
0.0
  0
POINT
  5
268
330
246
100
AcDbEntity
  8
Defpoints
 62
     0
100
AcDbPoint
 10
282.25
 20
-14.47160860367648
 30
0.0
  0
ENDBLK
  5
252
330
246
100
AcDbEntity
  8
0
100
AcDbBlockEnd
  0
BLOCK
  5
275
330
26A
100
AcDbEntity
  8
0
100
AcDbBlockBegin
  2
*D10
 70
     1
 10
0.0
 20
0.0
 30
0.0
  3
*D10
  1

  0
LINE
  5
278
330
26A
100
AcDbEntity
  8
Dimension
 62
     0
370
    -2
100
AcDbLine
 10
331.1925
 20
33.47999999999999
 30
0.0
 11
389.1696644833539
 21
33.47999999999997
 31
0.0
  0
LINE
  5
279
330
26A
100
AcDbEntity
  8
Dimension
 62
     0
370
    -2
100
AcDbLine
 10
331.1925
 20
0.0000000000000003
 30
0.0
 11
389.1696644833539
 21
-0.0000000000000161
 31
0.0
  0
LINE
  5
27A
330
26A
100
AcDbEntity
  8
Dimension
 62
     0
370
    -2
100
AcDbLine
 10
388.9896644833539
 20
30.47999999999998
 30
0.0
 11
388.9896644833539
 21
19.32999999999998
 31
0.0
  0
LINE
  5
27B
330
26A
100
AcDbEntity
  8
Dimension
 62
     0
370
    -2
100
AcDbLine
 10
388.9896644833539
 20
2.999999999999984
 30
0.0
 11
388.9896644833539
 21
14.14999999999998
 31
0.0
  0
SOLID
  5
27C
330
26A
100
AcDbEntity
  8
Dimension
 62
     0
100
AcDbTrace
 10
388.4896644833539
 20
30.47999999999998
 30
0.0
 11
389.4896644833539
 21
30.47999999999998
 31
0.0
 12
388.9896644833539
 22
33.47999999999998
 32
0.0
 13
388.9896644833539
 23
33.47999999999998
 33
0.0
  0
SOLID
  5
27D
330
26A
100
AcDbEntity
  8
Dimension
 62
     0
100
AcDbTrace
 10
388.4896644833539
 20
2.999999999999984
 30
0.0
 11
389.4896644833539
 21
2.999999999999983
 31
0.0
 12
388.9896644833539
 22
-0.000000000000016
 32
0.0
 13
388.9896644833539
 23
-0.000000000000016
 33
0.0
  0
MTEXT
  5
27E
330
26A
100
AcDbEntity
  8
Dimension
 62
     0
100
AcDbMText
 10
388.9896644833539
 20
16.74000000000004
 30
0.0
 40
5.0
 41
0.0
 71
     5
 72
     1
  1
\A1;33.4800
 73
     1
 44
1.0
1001
ACAD
1000
MTEXTBEGIN
1070
    73
1070
     1
1070
    44
1040
1.0
1070
    74
1070
     0
1000
MTEXTEND
  0
POINT
  5
27F
330
26A
100
AcDbEntity
  8
Defpoints
 62
     0
100
AcDbPoint
 10
331.13
 20
33.47999999999999
 30
0.0
  0
POINT
  5
280
330
26A
100
AcDbEntity
  8
Defpoints
 62
     0
100
AcDbPoint
 10
331.13
 20
0.0000000000000004
 30
0.0
  0
POINT
  5
281
330
26A
100
AcDbEntity
  8
Defpoints
 62
     0
100
AcDbPoint
 10
388.9896644833539
 20
-0.000000000000016
 30
0.0
  0
ENDBLK
  5
276
330
26A
100
AcDbEntity
  8
0
100
AcDbBlockEnd
  0
BLOCK
  5
290
330
284
100
AcDbEntity
  8
0
100
AcDbBlockBegin
  2
*D11
 70
     1
 10
0.0
 20
0.0
 30
0.0
  3
*D11
  1

  0
LINE
  5
293
330
284
100
AcDbEntity
  8
Dimension
 62
     0
370
    -2
100
AcDbLine
 10
334.4225
 20
20.51464215588564
 30
0.0
 11
368.5996268560129
 21
20.51464215588564
 31
0.0
  0
LINE
  5
294
330
284
100
AcDbEntity
  8
Dimension
 62
     0
370
    -2
100
AcDbLine
 10
334.4225
 20
12.96535784411435
 30
0.0
 11
368.5996268560129
 21
12.96535784411434
 31
0.0
  0
LINE
  5
295
330
284
100
AcDbEntity
  8
Dimension
 62
     0
370
    -2
100
AcDbLine
 10
368.4196268560129
 20
17.51464215588563
 30
0.0
 11
368.4196268560129
 21
15.96535784411434
 31
0.0
  0
LINE
  5
296
330
284
100
AcDbEntity
  8
Dimension
 62
     0
370
    -2
100
AcDbLine
 10
368.4196268560129
 20
12.96535784411434
 30
0.0
 11
368.4196268560129
 21
9.965357844114342
 31
0.0
  0
LINE
  5
297
330
284
100
AcDbEntity
  8
Dimension
 62
     0
370
    -2
100
AcDbLine
 10
368.4196268560129
 20
9.965357844114342
 30
0.0
 11
365.4196268560129
 21
9.965357844114342
 31
0.0
  0
SOLID
  5
298
330
284
100
AcDbEntity
  8
Dimension
 62
     0
100
AcDbTrace
 10
367.9196268560129
 20
17.51464215588563
 30
0.0
 11
368.9196268560129
 21
17.51464215588563
 31
0.0
 12
368.4196268560129
 22
20.51464215588564
 32
0.0
 13
368.4196268560129
 23
20.51464215588564
 33
0.0
  0
SOLID
  5
299
330
284
100
AcDbEntity
  8
Dimension
 62
     0
100
AcDbTrace
 10
367.9196268560129
 20
15.96535784411434
 30
0.0
 11
368.9196268560129
 21
15.96535784411434
 31
0.0
 12
368.4196268560129
 22
12.96535784411434
 32
0.0
 13
368.4196268560129
 23
12.96535784411434
 33
0.0
  0
MTEXT
  5
29A
330
284
100
AcDbEntity
  8
Dimension
 62
     0
100
AcDbMText
 10
352.8296268560129
 20
9.9653578441144
 30
0.0
 40
5.0
 41
0.0
 71
     5
 72
     1
  1
\A1;7.5493
 73
     1
 44
1.0
1001
ACAD
1000
MTEXTBEGIN
1070
    73
1070
     1
1070
    44
1040
1.0
1070
    74
1070
     0
1000
MTEXTEND
  0
POINT
  5
29B
330
284
100
AcDbEntity
  8
Defpoints
 62
     0
100
AcDbPoint
 10
334.36
 20
20.51464215588564
 30
0.0
  0
POINT
  5
29C
330
284
100
AcDbEntity
  8
Defpoints
 62
     0
100
AcDbPoint
 10
334.36
 20
12.96535784411435
 30
0.0
  0
POINT
  5
29D
330
284
100
AcDbEntity
  8
Defpoints
 62
     0
100
AcDbPoint
 10
368.4196268560129
 20
12.96535784411434
 30
0.0
  0
ENDBLK
  5
291
330
284
100
AcDbEntity
  8
0
100
AcDbBlockEnd
  0
BLOCK
  5
2AB
330
2A0
100
AcDbEntity
  8
0
100
AcDbBlockBegin
  2
*D12
 70
     1
 10
0.0
 20
0.0
 30
0.0
  3
*D12
  1

  0
LINE
  5
2AE
330
2A0
100
AcDbEntity
  8
Dimension
 62
     0
370
    -2
100
AcDbLine
 10
178.08
 20
19.8075
 30
0.0
 11
178.08
 21
-14.82489097049
 31
0.0
  0
LINE
  5
2AF
330
2A0
100
AcDbEntity
  8
Dimension
 62
     0
370
    -2
100
AcDbLine
 10
221.92
 20
19.8075
 30
0.0
 11
221.92
 21
-14.82489097049
 31
0.0
  0
LINE
  5
2B0
330
2A0
100
AcDbEntity
  8
Dimension
 62
     0
370
    -2
100
AcDbLine
 10
181.08
 20
-14.64489097049
 30
0.0
 11
185.7433333333333
 21
-14.64489097049
 31
0.0
  0
LINE
  5
2B1
330
2A0
100
AcDbEntity
  8
Dimension
 62
     0
370
    -2
100
AcDbLine
 10
218.92
 20
-14.64489097049
 30
0.0
 11
214.2566666666667
 21
-14.64489097049
 31
0.0
  0
SOLID
  5
2B2
330
2A0
100
AcDbEntity
  8
Dimension
 62
     0
100
AcDbTrace
 10
181.08
 20
-14.14489097049
 30
0.0
 11
181.08
 21
-15.14489097049
 31
0.0
 12
178.08
 22
-14.64489097049
 32
0.0
 13
178.08
 23
-14.64489097049
 33
0.0
  0
SOLID
  5
2B3
330
2A0
100
AcDbEntity
  8
Dimension
 62
     0
100
AcDbTrace
 10
218.92
 20
-14.14489097049
 30
0.0
 11
218.92
 21
-15.14489097049
 31
0.0
 12
221.92
 22
-14.64489097049
 32
0.0
 13
221.92
 23
-14.64489097049
 33
0.0
  0
MTEXT
  5
2B4
330
2A0
100
AcDbEntity
  8
Dimension
 62
     0
100
AcDbMText
 10
200.0
 20
-14.64489097049
 30
0.0
 40
5.0
 41
0.0
 71
     5
 72
     1
  1
\A1;43.8400
 73
     1
 44
1.0
1001
ACAD
1000
MTEXTBEGIN
1070
    73
1070
     1
1070
    44
1040
1.0
1070
    74
1070
     0
1000
MTEXTEND
  0
POINT
  5
2B5
330
2A0
100
AcDbEntity
  8
Defpoints
 62
     0
100
AcDbPoint
 10
178.08
 20
19.87
 30
0.0
  0
POINT
  5
2B6
330
2A0
100
AcDbEntity
  8
Defpoints
 62
     0
100
AcDbPoint
 10
221.92
 20
19.87
 30
0.0
  0
POINT
  5
2B7
330
2A0
100
AcDbEntity
  8
Defpoints
 62
     0
100
AcDbPoint
 10
221.92
 20
-14.64489097049
 30
0.0
  0
ENDBLK
  5
2AC
330
2A0
100
AcDbEntity
  8
0
100
AcDbBlockEnd
  0
BLOCK
  5
2C8
330
2C2
100
AcDbEntity
  8
0
100
AcDbBlockBegin
  2
*D13
 70
     1
 10
0.0
 20
0.0
 30
0.0
  3
*D13
  1

  0
LINE
  5
2CB
330
2C2
100
AcDbEntity
  8
Dimension
 62
     0
370
    -2
100
AcDbLine
 10
216.34
 20
69.12
 30
0.0
 11
236.25
 21
69.12
 31
0.0
  0
MTEXT
  5
2CC
330
2C2
100
AcDbEntity
  8
Dimension
 62
     0
100
AcDbMText
 10
200.0
 20
69.12
 30
0.0
 40
5.0
 41
0.0
 71
     5
 72
     1
  1
\A1;\U+220578.5000
 73
     1
 44
1.0
1001
ACAD
1000
MTEXTBEGIN
1070
    73
1070
     1
1070
    44
1040
1.0
1070
    74
1070
     0
1000
MTEXTEND
  0
SOLID
  5
2CD
330
2C2
100
AcDbEntity
  8
Dimension
 62
     0
100
AcDbTrace
 10
236.25
 20
69.62
 30
0.0
 11
236.25
 21
68.62
 31
0.0
 12
239.25
 22
69.12
 32
0.0
 13
239.25
 23
69.12
 33
0.0
  0
POINT
  5
2CE
330
2C2
100
AcDbEntity
  8
Defpoints
 62
     0
100
AcDbPoint
 10
239.25
 20
69.12
 30
0.0
  0
POINT
  5
2CF
330
2C2
100
AcDbEntity
  8
Defpoints
 62
     0
100
AcDbPoint
 10
160.75
 20
69.12
 30
0.0
  0
ENDBLK
  5
2C9
330
2C2
100
AcDbEntity
  8
0
100
AcDbBlockEnd
  0
BLOCK
  5
30B
330
302
100
AcDbEntity
  8
0
100
AcDbBlockBegin
  2
*D14
 70
     1
 10
0.0
 20
0.0
 30
0.0
  3
*D14
  1

  0
LINE
  5
31F
330
302
100
AcDbEntity
  8
Dimension
 62
     0
370
    -2
100
AcDbLine
 10
224.8922054994377
 20
87.4223691183946
 30
0.0
 11
227.8922054994377
 21
87.42236911839462
 31
0.0
  0
LINE
  5
320
330
302
100
AcDbEntity
  8
Dimension
 62
     0
370
    -2
100
AcDbLine
 10
227.8922054994377
 20
87.42236911839462
 30
0.0
 11
230.4004272205248
 21
89.06821959698216
 31
0.0
  0
MTEXT
  5
321
330
302
100
AcDbEntity
  8
Dimension
 62
     0
100
AcDbMText
 10
211.0522054994377
 20
87.42236911839466
 30
0.0
 40
5.0
 41
0.0
 71
     5
 72
     1
  1
\A1;\U+22059.5000
 73
     1
 44
1.0
1001
ACAD
1000
MTEXTBEGIN
1070
    73
1070
     1
1070
    44
1040
1.0
1070
    74
1070
     0
1000
MTEXTEND
  0
SOLID
  5
322
330
302
100
AcDbEntity
  8
Dimension
 62
     0
100
AcDbTrace
 10
230.1261188074269
 20
89.48625655049667
 30
0.0
 11
230.6747356336228
 21
88.65018264346764
 31
0.0
 12
232.908648941612
 22
90.71407007556969
 32
0.0
 13
232.908648941612
 23
90.71407007556969
 33
0.0
  0
LINE
  5
323
330
302
100
AcDbEntity
  8
Dimension
 62
     0
370
    -2
100
AcDbLine
 10
236.7899999999998
 20
93.31999999999997
 30
0.0
 11
236.9699999999999
 21
93.31999999999997
 31
0.0
  0
LINE
  5
324
330
302
100
AcDbEntity
  8
Dimension
 62
     0
370
    -2
100
AcDbLine
 10
236.8799999999999
 20
93.22999999999993
 30
0.0
 11
236.8799999999999
 21
93.40999999999997
 31
0.0
  0
POINT
  5
325
330
302
100
AcDbEntity
  8
Defpoints
 62
     0
100
AcDbPoint
 10
232.908648941612
 20
90.71407007556969
 30
0.0
  0
POINT
  5
326
330
302
100
AcDbEntity
  8
Defpoints
 62
     0
100
AcDbPoint
 10
240.8513510583878
 20
95.92592992443018
 30
0.0
  0
ENDBLK
  5
30C
330
302
100
AcDbEntity
  8
0
100
AcDbBlockEnd
  0
BLOCK
  5
351
330
346
100
AcDbEntity
  8
0
100
AcDbBlockBegin
  2
*D15
 70
     1
 10
0.0
 20
0.0
 30
0.0
  3
*D15
  1

  0
LINE
  5
354
330
346
100
AcDbEntity
  8
Dimension
 62
     0
370
    -2
100
AcDbLine
 10
318.9
 20
98.1325
 30
0.0
 11
318.9
 21
145.6164193439227
 31
0.0
  0
LINE
  5
355
330
346
100
AcDbEntity
  8
Dimension
 62
     0
370
    -2
100
AcDbLine
 10
282.25
 20
108.495
 30
0.0
 11
282.25
 21
145.6164193439227
 31
0.0
  0
LINE
  5
356
330
346
100
AcDbEntity
  8
Dimension
 62
     0
370
    -2
100
AcDbLine
 10
315.9
 20
145.4364193439227
 30
0.0
 11
314.8316666666667
 21
145.4364193439227
 31
0.0
  0
LINE
  5
357
330
346
100
AcDbEntity
  8
Dimension
 62
     0
370
    -2
100
AcDbLine
 10
285.25
 20
145.4364193439227
 30
0.0
 11
286.3183333333333
 21
145.4364193439227
 31
0.0
  0
SOLID
  5
358
330
346
100
AcDbEntity
  8
Dimension
 62
     0
100
AcDbTrace
 10
315.9
 20
145.9364193439227
 30
0.0
 11
315.9
 21
144.9364193439227
 31
0.0
 12
318.9
 22
145.4364193439227
 32
0.0
 13
318.9
 23
145.4364193439227
 33
0.0
  0
SOLID
  5
359
330
346
100
AcDbEntity
  8
Dimension
 62
     0
100
AcDbTrace
 10
285.25
 20
145.9364193439227
 30
0.0
 11
285.25
 21
144.9364193439227
 31
0.0
 12
282.25
 22
145.4364193439227
 32
0.0
 13
282.25
 23
145.4364193439227
 33
0.0
  0
MTEXT
  5
35A
330
346
100
AcDbEntity
  8
Dimension
 62
     0
100
AcDbMText
 10
300.575
 20
145.4364193439227
 30
0.0
 40
5.0
 41
0.0
 71
     5
 72
     1
  1
\A1;36.6500
 73
     1
 44
1.0
1001
ACAD
1000
MTEXTBEGIN
1070
    73
1070
     1
1070
    44
1040
1.0
1070
    74
1070
     0
1000
MTEXTEND
  0
POINT
  5
35B
330
346
100
AcDbEntity
  8
Defpoints
 62
     0
100
AcDbPoint
 10
318.9
 20
98.07
 30
0.0
  0
POINT
  5
35C
330
346
100
AcDbEntity
  8
Defpoints
 62
     0
100
AcDbPoint
 10
282.25
 20
108.4325
 30
0.0
  0
POINT
  5
35D
330
346
100
AcDbEntity
  8
Defpoints
 62
     0
100
AcDbPoint
 10
282.25
 20
145.4364193439227
 30
0.0
  0
ENDBLK
  5
352
330
346
100
AcDbEntity
  8
0
100
AcDbBlockEnd
  0
BLOCK
  5
373
330
367
100
AcDbEntity
  8
0
100
AcDbBlockBegin
  2
*D16
 70
     1
 10
0.0
 20
0.0
 30
0.0
  3
*D16
  1

  0
LINE
  5
382
330
367
100
AcDbEntity
  8
Dimension
  6
HIDDENX2
 62
     0
370
    -2
100
AcDbLine
 10
318.9625
 20
98.07
 30
0.0
 11
349.9826206452712
 21
98.07
 31
0.0
  0
LINE
  5
383
330
367
100
AcDbEntity
  8
Dimension
  6
HIDDENX2
 62
     0
370
    -2
100
AcDbLine
 10
318.9625
 20
88.56999999999999
 30
0.0
 11
349.9826206452712
 21
88.56999999999999
 31
0.0
  0
LINE
  5
384
330
367
100
AcDbEntity
  8
Dimension
  6
HIDDENX2
 62
     0
370
    -2
100
AcDbLine
 10
349.8026206452712
 20
95.06999999999999
 30
0.0
 11
349.8026206452712
 21
91.57
 31
0.0
  0
LINE
  5
385
330
367
100
AcDbEntity
  8
Dimension
  6
HIDDENX2
 62
     0
370
    -2
100
AcDbLine
 10
349.8026206452712
 20
88.56999999999999
 30
0.0
 11
349.8026206452712
 21
85.57
 31
0.0
  0
LINE
  5
386
330
367
100
AcDbEntity
  8
Dimension
  6
HIDDENX2
 62
     0
370
    -2
100
AcDbLine
 10
349.8026206452712
 20
85.57
 30
0.0
 11
346.8026206452712
 21
85.57
 31
0.0
  0
SOLID
  5
387
330
367
100
AcDbEntity
  8
Dimension
  6
HIDDENX2
 62
     0
100
AcDbTrace
 10
349.3026206452712
 20
95.06999999999999
 30
0.0
 11
350.3026206452712
 21
95.06999999999999
 31
0.0
 12
349.8026206452712
 22
98.07
 32
0.0
 13
349.8026206452712
 23
98.07
 33
0.0
  0
SOLID
  5
388
330
367
100
AcDbEntity
  8
Dimension
  6
HIDDENX2
 62
     0
100
AcDbTrace
 10
349.3026206452712
 20
91.57
 30
0.0
 11
350.3026206452712
 21
91.57
 31
0.0
 12
349.8026206452712
 22
88.56999999999999
 32
0.0
 13
349.8026206452712
 23
88.56999999999999
 33
0.0
  0
MTEXT
  5
389
330
367
100
AcDbEntity
  8
Dimension
  6
HIDDENX2
 62
     0
100
AcDbMText
 10
335.4626206452712
 20
85.57000000000005
 30
0.0
 40
5.0
 41
0.0
 71
     5
 72
     1
  1
\A1;9.5000
 73
     1
 44
1.0
1001
ACAD
1000
MTEXTBEGIN
1070
    73
1070
     1
1070
    44
1040
1.0
1070
    74
1070
     0
1000
MTEXTEND
  0
POINT
  5
38A
330
367
100
AcDbEntity
  8
Defpoints
  6
HIDDENX2
 62
     0
100
AcDbPoint
 10
318.9
 20
98.07
 30
0.0
  0
POINT
  5
38B
330
367
100
AcDbEntity
  8
Defpoints
  6
HIDDENX2
 62
     0
100
AcDbPoint
 10
318.9
 20
88.56999999999999
 30
0.0
  0
POINT
  5
38C
330
367
100
AcDbEntity
  8
Defpoints
  6
HIDDENX2
 62
     0
100
AcDbPoint
 10
349.8026206452712
 20
88.56999999999999
 30
0.0
  0
ENDBLK
  5
374
330
367
100
AcDbEntity
  8
0
100
AcDbBlockEnd
  0
ENDSEC
  0
SECTION
  2
ENTITIES
  0
LINE
  5
8F
102
{ACAD_REACTORS
330
1B3
102
}
330
1F
100
AcDbEntity
  8
DrawingLine
100
AcDbLine
 10
200.0
 20
0.0
 30
0.0
 11
200.0
 21
300.0
 31
0.0
  0
LINE
  5
90
102
{ACAD_REACTORS
330
1B3
102
}
330
1F
100
AcDbEntity
  8
DrawingLine
100
AcDbLine
 10
0.0
 20
115.05
 30
0.0
 11
501.7516859981396
 21
115.05
 31
0.0
  0
LINE
  5
91
330
1F
100
AcDbEntity
  8
DrawingLine
100
AcDbLine
 10
300.0
 20
0.0
 30
0.0
 11
300.0
 21
167.9991398740629
 31
0.0
  0
LINE
  5
92
102
{ACAD_REACTORS
330
1F6
102
}
330
1F
100
AcDbEntity
  8
DrawingLine
100
AcDbLine
 10
100.0
 20
69.12
 30
0.0
 11
300.0
 21
69.12
 31
0.0
  0
CIRCLE
  5
94
102
{ACAD_REACTORS
330
2D0
102
}
330
1F
100
AcDbEntity
  8
Lidar
100
AcDbCircle
 10
200.0
 20
69.12
 30
0.0
 40
39.25
  0
LINE
  5
97
102
{ACAD_REACTORS
330
22A
102
}
330
1F
100
AcDbEntity
  8
Lidar
100
AcDbLine
 10
300.0
 20
115.05
 30
0.0
 11
300.0
 21
0.0
 31
0.0
  0
LINE
  5
98
102
{ACAD_REACTORS
330
175
102
}
330
1F
100
AcDbEntity
  8
DrawingLine
100
AcDbLine
 10
200.0
 20
108.37
 30
0.0
 11
341.2067108994258
 21
108.37
 31
0.0
  0
LINE
  5
99
102
{ACAD_REACTORS
330
175
102
}
330
1F
100
AcDbEntity
  8
DrawingLine
100
AcDbLine
 10
200.0
 20
29.87
 30
0.0
 11
326.0973911084489
 21
29.87
 31
0.0
  0
LWPOLYLINE
  5
9A
102
{ACAD_REACTORS
330
1B3
330
25E
102
}
330
1F
100
AcDbEntity
  8
DrawingLine
100
AcDbPolyline
 90
        4
 70
     1
 43
0.0
 10
400.0
 20
29.87
 10
-17.75
 20
29.87
 10
-17.75
 20
0.0000000000000022
 10
400.0
 20
0.0
  0
LWPOLYLINE
  5
9D
102
{ACAD_REACTORS
330
210
330
25E
102
}
330
1F
100
AcDbEntity
  8
Lidar
100
AcDbPolyline
 90
        4
 70
     1
 43
0.0
 10
300.0
 20
29.87
 10
282.25
 20
29.87
 10
282.25
 20
108.37
 10
300.0
 20
108.37
  0
LINE
  5
9E
330
1F
100
AcDbEntity
  8
DrawingLine
100
AcDbLine
 10
0.0
 20
93.31999999999998
 30
0.0
 11
404.8961055946963
 21
93.31999999999998
 31
0.0
  0
LINE
  5
9F
330
1F
100
AcDbEntity
  8
DrawingLine
100
AcDbLine
 10
236.88
 20
0.0
 30
0.0
 11
236.88
 21
103.8493145897916
 31
0.0
  0
LINE
  5
A2
330
1F
100
AcDbEntity
  8
DrawingLine
100
AcDbLine
 10
0.0
 20
19.87
 30
0.0
 11
341.2494847350722
 21
19.87
 31
0.0
  0
LINE
  5
A3
330
1F
100
AcDbEntity
  8
DrawingLine
100
AcDbLine
 10
221.92
 20
0.0
 30
0.0
 11
221.92
 21
49.153691293895
 31
0.0
  0
CIRCLE
  5
A5
102
{ACAD_REACTORS
330
2B8
102
}
330
1F
100
AcDbEntity
  8
Lidar
  6
ACAD_ISO02W100
100
AcDbCircle
 10
221.92
 20
19.87
 30
0.0
 40
4.75
  0
CIRCLE
  5
A6
102
{ACAD_REACTORS
330
114
330
316
102
}
330
1F
100
AcDbEntity
  8
Lidar
  6
ACAD_ISO02W100
100
AcDbCircle
 10
236.88
 20
93.31999999999998
 30
0.0
 40
4.75
  0
LINE
  5
A7
330
1F
100
AcDbEntity
  8
DrawingLine
100
AcDbLine
 10
311.3
 20
0.0
 30
0.0
 11
311.3
 21
129.670090302255
 31
0.0
  0
LWPOLYLINE
  5
A9
330
1F
100
AcDbEntity
  8
Lidar
100
AcDbPolyline
 90
        4
 70
     1
 43
0.0
 10
300.0
 20
0.0
 10
311.3
 20
0.0
 10
311.3
 20
115.05
 10
300.0
 20
115.05
  0
LINE
  5
AA
330
1F
100
AcDbEntity
  8
DrawingLine
100
AcDbLine
 10
200.0
 20
112.85
 30
0.0
 11
231.8065159130171
 21
112.85
 31
0.0
  0
LINE
  5
AF
330
1F
100
AcDbEntity
  8
DrawingLine
100
AcDbLine
 10
204.6937714192115
 20
116.8590565173889
 30
0.0
 11
204.6937714192115
 21
110.5754441945373
 31
0.0
  0
ARC
  5
B0
330
1F
100
AcDbEntity
  8
Lidar
100
AcDbCircle
 10
200.1346307466826
 20
118.6699177804445
 30
0.0
 40
5.821474762385114
100
AcDbArc
 50
268.6748269705571
 51
321.5507324778287
  0
LINE
  5
B1
102
{ACAD_REACTORS
330
1F6
102
}
330
1F
100
AcDbEntity
  8
DrawingLine
100
AcDbLine
 10
248.365
 20
0.0
 30
0.0
 11
248.365
 21
125.6738809441693
 31
0.0
  0
ARC
  5
B3
102
{ACAD_REACTORS
330
1F6
102
}
330
1F
100
AcDbEntity
  8
Lidar
100
AcDbCircle
 10
204.7831503874156
 20
71.33356403627179
 30
0.0
 40
43.63802792744647
100
AcDbArc
 50
357.0923908376418
 51
90.19191193184399
  0
ARC
  5
B4
330
1F
100
AcDbEntity
  8
Lidar
100
AcDbCircle
 10
174.1677033413943
 20
68.07364805500002
 30
0.0
 40
74.20467427216384
100
AcDbArc
 50
297.4775251807821
 51
0.8079482572362534
  0
LINE
  5
B7
330
1F
100
AcDbEntity
  8
DrawingLine
100
AcDbLine
 10
200.0
 20
16.74
 30
0.0
 11
378.8476799148173
 21
16.74
 31
0.0
  0
ARC
  5
BD
102
{ACAD_REACTORS
330
1B3
102
}
330
1F
100
AcDbEntity
  8
Lidar
100
AcDbCircle
 10
200.0573744065822
 20
16.67729242377794
 30
0.0
 40
16.67739111524136
100
AcDbArc
 50
269.8028877651818
 51
300.0385570397775
  0
CIRCLE
  5
C3
330
1F
100
AcDbEntity
  8
Lidar
  6
ACAD_ISO02W100
100
AcDbCircle
 10
200.0
 20
16.74
 30
0.0
 40
16.73999999999999
  0
ARC
  5
C4
330
1F
100
AcDbEntity
  8
Lidar
100
AcDbCircle
 10
199.9426255934178
 20
16.67729242377794
 30
0.0
 40
16.67739111524136
100
AcDbArc
 50
239.9614429602226
 51
270.1971122348183
  0
ARC
  5
C5
102
{ACAD_REACTORS
330
1F6
102
}
330
1F
100
AcDbEntity
  8
Lidar
100
AcDbCircle
 10
225.8322966586057
 20
68.07364805500002
 30
0.0
 40
74.20467427216384
100
AcDbArc
 50
179.1920517427637
 51
242.5224748192179
  0
ARC
  5
C6
330
1F
100
AcDbEntity
  8
Lidar
100
AcDbCircle
 10
195.2168496125844
 20
71.33356403627179
 30
0.0
 40
43.63802792744647
100
AcDbArc
 50
89.80808806815602
 51
182.9076091623583
  0
ARC
  5
C7
330
1F
100
AcDbEntity
  8
Lidar
100
AcDbCircle
 10
199.8653692533174
 20
118.6699177804445
 30
0.0
 40
5.821474762385114
100
AcDbArc
 50
218.4492675221713
 51
271.3251730294429
  0
CIRCLE
  5
C8
102
{ACAD_REACTORS
330
114
330
18F
102
}
330
1F
100
AcDbEntity
  8
Lidar
  6
ACAD_ISO02W100
100
AcDbCircle
 10
163.12
 20
93.31999999999998
 30
0.0
 40
4.75
  0
CIRCLE
  5
C9
102
{ACAD_REACTORS
330
18F
330
2B8
102
}
330
1F
100
AcDbEntity
  8
Lidar
  6
ACAD_ISO02W100
100
AcDbCircle
 10
178.08
 20
19.87
 30
0.0
 40
4.75
  0
CIRCLE
  5
CA
330
1F
100
AcDbEntity
  8
Lidar
100
AcDbCircle
 10
200.0
 20
16.74
 30
0.0
 40
11.17108498499306
  0
LINE
  5
CB
102
{ACAD_REACTORS
330
244
102
}
330
1F
100
AcDbEntity
  8
Lidar
100
AcDbLine
 10
311.3
 20
98.07
 30
0.0
 11
318.9
 21
98.07
 31
0.0
  0
LINE
  5
CC
330
1F
100
AcDbEntity
  8
Lidar
100
AcDbLine
 10
311.3
 20
88.56999999999999
 30
0.0
 11
318.9
 21
88.56999999999999
 31
0.0
  0
LINE
  5
CD
102
{ACAD_REACTORS
330
244
330
35E
330
381
102
}
330
1F
100
AcDbEntity
  8
Lidar
100
AcDbLine
 10
318.9
 20
98.07
 30
0.0
 11
318.9
 21
88.56999999999999
 31
0.0
  0
LINE
  5
CE
330
1F
100
AcDbEntity
  8
Lidar
100
AcDbLine
 10
311.3
 20
24.62000000000001
 30
0.0
 11
318.9
 21
24.62000000000001
 31
0.0
  0
LINE
  5
CF
330
1F
100
AcDbEntity
  8
Lidar
100
AcDbLine
 10
311.3
 20
15.12
 30
0.0
 11
318.9
 21
15.12
 31
0.0
  0
LINE
  5
D0
330
1F
100
AcDbEntity
  8
Lidar
100
AcDbLine
 10
318.9
 20
24.62000000000001
 30
0.0
 11
318.9
 21
15.12
 31
0.0
  0
LINE
  5
D1
330
1F
100
AcDbEntity
  8
DrawingLine
100
AcDbLine
 10
334.36
 20
0.0
 30
0.0
 11
334.36
 21
52.64016028863784
 31
0.0
  0
LINE
  5
D2
330
1F
100
AcDbEntity
  8
DrawingLine
100
AcDbLine
 10
331.13
 20
0.0
 30
0.0
 11
331.13
 21
52.80509760428618
 31
0.0
  0
LINE
  5
D3
330
1F
100
AcDbEntity
  8
Lidar
100
AcDbLine
 10
311.3
 20
33.47999999999999
 30
0.0
 11
331.13
 21
33.47999999999999
 31
0.0
  0
LINE
  5
D4
102
{ACAD_REACTORS
330
282
102
}
330
1F
100
AcDbEntity
  8
Lidar
100
AcDbLine
 10
331.13
 20
33.47999999999999
 30
0.0
 11
331.13
 21
0.0000000000000004
 31
0.0
  0
LINE
  5
D5
102
{ACAD_REACTORS
330
282
102
}
330
1F
100
AcDbEntity
  8
Lidar
100
AcDbLine
 10
331.13
 20
0.0000000000000004
 30
0.0
 11
311.3
 21
0.0000000000000028
 31
0.0
  0
LINE
  5
DB
330
1F
100
AcDbEntity
  8
Lidar
100
AcDbLine
 10
334.36
 20
16.74
 30
0.0
 11
334.36
 21
12.96535784411435
 31
0.0
  0
LINE
  5
DC
102
{ACAD_REACTORS
330
29E
102
}
330
1F
100
AcDbEntity
  8
Lidar
100
AcDbLine
 10
334.36
 20
12.96535784411435
 30
0.0
 11
331.13
 21
12.96535784411435
 31
0.0
  0
LINE
  5
DD
330
1F
100
AcDbEntity
  8
Lidar
100
AcDbLine
 10
334.36
 20
20.51464215588564
 30
0.0
 11
331.13
 21
20.51464215588564
 31
0.0
  0
LINE
  5
DE
102
{ACAD_REACTORS
330
29E
102
}
330
1F
100
AcDbEntity
  8
Lidar
100
AcDbLine
 10
334.36
 20
16.74
 30
0.0
 11
334.36
 21
20.51464215588564
 31
0.0
  0
DIMENSION
  5
FA
102
{ACAD_XDICTIONARY
360
109
102
}
102
{ACAD_REACTORS
330
114
102
}
330
1F
100
AcDbEntity
  8
Dimension
100
AcDbDimension
  2
*D1
 10
236.88
 20
124.52006989921
 30
0.0
 11
200.0
 21
124.52006989921
 31
0.0
 70
    32
 71
     5
 42
73.75999999999999
  3
Standard
100
AcDbAlignedDimension
 13
163.12
 23
93.31999999999998
 33
0.0
 14
236.88
 24
93.31999999999998
 34
0.0
100
AcDbRotatedDimension
  0
DIMENSION
  5
15C
102
{ACAD_XDICTIONARY
360
16A
102
}
102
{ACAD_REACTORS
330
175
102
}
330
1F
100
AcDbEntity
  8
Dimension
100
AcDbDimension
  2
*D2
 10
118.9392307365237
 20
29.87000000000003
 30
0.0
 11
118.9392307365237
 21
69.12000000000003
 31
0.0
 70
   160
 71
     5
 42
78.5
  3
Standard
100
AcDbAlignedDimension
 13
200.0
 23
108.37
 33
0.0
 14
200.0
 24
29.87
 34
0.0
 50
90.0
100
AcDbRotatedDimension
  0
DIMENSION
  5
176
102
{ACAD_XDICTIONARY
360
184
102
}
102
{ACAD_REACTORS
330
18F
102
}
330
1F
100
AcDbEntity
  8
Dimension
100
AcDbDimension
  2
*D3
 10
138.2427323902104
 20
19.87000000000001
 30
0.0
 11
138.2427323902104
 21
56.59500000000004
 31
0.0
 70
   160
 71
     5
 42
73.44999999999998
  3
Standard
100
AcDbAlignedDimension
 13
163.12
 23
93.31999999999998
 33
0.0
 14
178.08
 24
19.87
 34
0.0
 50
90.0
100
AcDbRotatedDimension
  0
DIMENSION
  5
19A
102
{ACAD_XDICTIONARY
360
1A8
102
}
102
{ACAD_REACTORS
330
1B3
102
}
330
1F
100
AcDbEntity
  8
Dimension
100
AcDbDimension
  2
*D4
 10
96.76293143386587
 20
115.05
 30
0.0
 11
96.76293143386583
 21
57.52500000000004
 31
0.0
 70
   160
 71
     5
 42
115.05
  3
Standard
100
AcDbAlignedDimension
 13
200.1147488131632
 23
0.0000000000000036
 33
0.0
 14
200.0
 24
115.05
 34
0.0
 50
90.0
100
AcDbRotatedDimension
  0
DIMENSION
  5
1DD
102
{ACAD_XDICTIONARY
360
1EB
102
}
102
{ACAD_REACTORS
330
1F6
102
}
330
1F
100
AcDbEntity
  8
Dimension
100
AcDbDimension
  2
*D5
 10
248.365
 20
136.6371625980827
 30
0.0
 11
200.0
 21
136.6371625980827
 31
0.0
 70
    32
 71
     5
 42
96.72999999999987
  3
Standard
100
AcDbAlignedDimension
 13
151.6350000000001
 23
69.12
 33
0.0
 14
248.365
 24
69.1200000000008
 34
0.0
100
AcDbRotatedDimension
  0
DIMENSION
  5
1F7
102
{ACAD_XDICTIONARY
360
205
102
}
102
{ACAD_REACTORS
330
210
102
}
330
1F
100
AcDbEntity
  8
Dimension
100
AcDbDimension
  2
*D6
 10
300.0
 20
132.5711808704445
 30
0.0
 11
316.4233333333334
 21
132.5711808704445
 31
0.0
 70
    32
 71
     5
 42
17.75
  3
Standard
100
AcDbAlignedDimension
 13
282.25
 23
108.37
 33
0.0
 14
300.0
 24
108.37
 34
0.0
100
AcDbRotatedDimension
  0
DIMENSION
  5
211
102
{ACAD_XDICTIONARY
360
21F
102
}
102
{ACAD_REACTORS
330
22A
102
}
330
1F
100
AcDbEntity
  8
Dimension
100
AcDbDimension
  2
*D7
 10
311.3
 20
125.1130721735055
 30
0.0
 11
326.4733333333333
 21
125.1130721735055
 31
0.0
 70
    32
 71
     5
 42
11.30000000000001
  3
Standard
100
AcDbAlignedDimension
 13
300.0
 23
115.05
 33
0.0
 14
311.3
 24
115.05
 34
0.0
100
AcDbRotatedDimension
  0
DIMENSION
  5
22B
102
{ACAD_XDICTIONARY
360
239
102
}
102
{ACAD_REACTORS
330
244
102
}
330
1F
100
AcDbEntity
  8
Dimension
100
AcDbDimension
  2
*D8
 10
318.9
 20
110.1968533668881
 30
0.0
 11
333.24
 21
110.1968533668881
 31
0.0
 70
    32
 71
     5
 42
7.599999999999965
  3
Standard
100
AcDbAlignedDimension
 13
311.3
 23
98.07
 33
0.0
 14
318.9
 24
98.07
 34
0.0
100
AcDbRotatedDimension
  0
DIMENSION
  5
245
102
{ACAD_XDICTIONARY
360
253
102
}
102
{ACAD_REACTORS
330
25E
102
}
330
1F
100
AcDbEntity
  8
Dimension
100
AcDbDimension
  2
*D9
 10
282.25
 20
-14.47160860367648
 30
0.0
 11
308.305
 21
-14.47160860367648
 31
0.0
 70
    32
 71
     5
 42
52.11000000000002
  3
Standard
100
AcDbAlignedDimension
 13
334.36
 23
12.96535784411435
 33
0.0
 14
282.25
 24
29.87
 34
0.0
100
AcDbRotatedDimension
  0
DIMENSION
  5
269
102
{ACAD_XDICTIONARY
360
277
102
}
102
{ACAD_REACTORS
330
282
102
}
330
1F
100
AcDbEntity
  8
Dimension
100
AcDbDimension
  2
*D10
 10
388.9896644833539
 20
-0.000000000000016
 30
0.0
 11
388.9896644833539
 21
16.74000000000004
 31
0.0
 70
    32
 71
     5
 42
33.47999999999999
  3
Standard
100
AcDbAlignedDimension
 13
331.13
 23
33.47999999999999
 33
0.0
 14
331.13
 24
0.0000000000000004
 34
0.0
 50
90.0
100
AcDbRotatedDimension
  0
DIMENSION
  5
283
102
{ACAD_XDICTIONARY
360
292
102
}
102
{ACAD_REACTORS
330
29E
102
}
330
1F
100
AcDbEntity
  8
Dimension
100
AcDbDimension
  2
*D11
 10
368.4196268560129
 20
12.96535784411434
 30
0.0
 11
352.8296268560129
 21
9.9653578441144
 31
0.0
 70
    32
 71
     5
 42
7.549284311771295
  3
Standard
100
AcDbAlignedDimension
 13
334.36
 23
20.51464215588564
 33
0.0
 14
334.36
 24
12.96535784411435
 34
0.0
 50
90.0
100
AcDbRotatedDimension
  0
DIMENSION
  5
29F
102
{ACAD_XDICTIONARY
360
2AD
102
}
102
{ACAD_REACTORS
330
2B8
102
}
330
1F
100
AcDbEntity
  8
Dimension
100
AcDbDimension
  2
*D12
 10
221.92
 20
-14.64489097049
 30
0.0
 11
200.0
 21
-14.64489097049
 31
0.0
 70
    32
 71
     5
 42
43.83999999999997
  3
Standard
100
AcDbAlignedDimension
 13
178.08
 23
19.87
 33
0.0
 14
221.92
 24
19.87
 34
0.0
100
AcDbRotatedDimension
  0
LINE
  5
2B9
330
1F
100
AcDbEntity
  8
Dimension
100
AcDbLine
 10
236.79
 20
93.31999999999998
 30
0.0
 11
236.97
 21
93.31999999999998
 31
0.0
  0
LINE
  5
2BA
330
1F
100
AcDbEntity
  8
Dimension
100
AcDbLine
 10
236.88
 20
93.22999999999998
 30
0.0
 11
236.88
 21
93.40999999999999
 31
0.0
  0
LINE
  5
2BB
330
1F
100
AcDbEntity
  8
Dimension
100
AcDbLine
 10
163.03
 20
93.31999999999998
 30
0.0
 11
163.21
 21
93.31999999999998
 31
0.0
  0
LINE
  5
2BC
330
1F
100
AcDbEntity
  8
Dimension
100
AcDbLine
 10
163.12
 20
93.22999999999998
 30
0.0
 11
163.12
 21
93.40999999999999
 31
0.0
  0
LINE
  5
2BD
330
1F
100
AcDbEntity
  8
Dimension
100
AcDbLine
 10
221.83
 20
19.87
 30
0.0
 11
222.01
 21
19.87
 31
0.0
  0
LINE
  5
2BE
330
1F
100
AcDbEntity
  8
Dimension
100
AcDbLine
 10
221.92
 20
19.78
 30
0.0
 11
221.92
 21
19.96
 31
0.0
  0
LINE
  5
2BF
330
1F
100
AcDbEntity
  8
Dimension
100
AcDbLine
 10
177.99
 20
19.87
 30
0.0
 11
178.17
 21
19.87
 31
0.0
  0
LINE
  5
2C0
330
1F
100
AcDbEntity
  8
Dimension
100
AcDbLine
 10
178.08
 20
19.78
 30
0.0
 11
178.08
 21
19.96
 31
0.0
  0
DIMENSION
  5
2C1
102
{ACAD_XDICTIONARY
360
2CA
102
}
102
{ACAD_REACTORS
330
2D0
102
}
330
1F
100
AcDbEntity
  8
Dimension
100
AcDbDimension
  2
*D13
 10
160.75
 20
69.12
 30
0.0
 11
200.0
 21
69.12
 31
0.0
 70
   163
 71
     5
 42
78.5
  3
Standard
100
AcDbDiametricDimension
 15
239.25
 25
69.12
 35
0.0
 40
0.0
1001
ACAD
1000
DSTYLE
1002
{
1070
   288
1070
     1
1002
}
  0
DIMENSION
  5
301
102
{ACAD_XDICTIONARY
360
30D
102
}
102
{ACAD_REACTORS
330
316
102
}
330
1F
100
AcDbEntity
  8
Dimension
100
AcDbDimension
  2
*D14
 10
240.8513510583878
 20
95.92592992443018
 30
0.0
 11
211.0522054994377
 21
87.42236911839466
 31
0.0
 70
    35
 71
     5
 42
9.5
  3
Standard
100
AcDbDiametricDimension
 15
232.908648941612
 25
90.71407007556969
 35
0.0
 40
0.0
1001
ACAD
1000
DSTYLE
1002
{
1070
   288
1070
     1
1002
}
  0
DIMENSION
  5
345
102
{ACAD_XDICTIONARY
360
353
102
}
102
{ACAD_REACTORS
330
35E
102
}
330
1F
100
AcDbEntity
  8
Dimension
100
AcDbDimension
  2
*D15
 10
282.25
 20
145.4364193439227
 30
0.0
 11
300.575
 21
145.4364193439227
 31
0.0
 70
    32
 71
     5
 42
36.64999999999998
  3
Standard
100
AcDbAlignedDimension
 13
318.9
 23
98.07
 33
0.0
 14
282.25
 24
108.4325
 34
0.0
100
AcDbRotatedDimension
  0
CIRCLE
  5
360
330
1F
100
AcDbEntity
  8
Lidar
  6
ACAD_ISO02W100
100
AcDbCircle
 10
200.0
 20
69.12
 30
0.0
 40
38.455
  0
LINE
  5
361
330
1F
100
AcDbEntity
  8
DrawingLine
100
AcDbLine
 10
200.0
 20
107.575
 30
0.0
 11
320.8965247207195
 21
107.575
 31
0.0
  0
LINE
  5
362
330
1F
100
AcDbEntity
  8
DrawingLine
  6
HIDDENX2
100
AcDbLine
 10
200.0
 20
30.66500000000001
 30
0.0
 11
323.3428783945494
 21
30.66500000000001
 31
0.0
  0
LWPOLYLINE
  5
364
330
1F
100
AcDbEntity
  8
Lidar
100
AcDbPolyline
 90
        4
 70
     1
 43
0.0
 10
311.3
 20
107.575
 10
317.7181380670718
 20
107.575
 10
317.7181380670718
 20
30.66500000000001
 10
311.3
 20
30.66500000000001
  0
DIMENSION
  5
366
102
{ACAD_XDICTIONARY
360
375
102
}
102
{ACAD_REACTORS
330
381
102
}
330
1F
100
AcDbEntity
  8
Dimension
  6
HIDDENX2
100
AcDbDimension
  2
*D16
 10
349.8026206452712
 20
88.56999999999999
 30
0.0
 11
335.4626206452712
 21
85.57000000000005
 31
0.0
 70
    32
 71
     5
 42
9.5
  3
Standard
100
AcDbAlignedDimension
 13
318.9
 23
98.07
 33
0.0
 14
318.9
 24
88.56999999999999
 34
0.0
 50
90.0
100
AcDbRotatedDimension
  0
ENDSEC
  0
SECTION
  2
OBJECTS
  0
DICTIONARY
  5
C
330
0
100
AcDbDictionary
281
     1
  3
ACAD_COLOR
350
73
  3
ACAD_GROUP
350
D
  3
ACAD_LAYOUT
350
1A
  3
ACAD_MATERIAL
350
72
  3
ACAD_MLINESTYLE
350
17
  3
ACAD_PLOTSETTINGS
350
19
  3
ACAD_PLOTSTYLENAME
350
E
  3
ACDBHEADERROUNDTRIPXREC
350
391
  3
AcDbVariableDictionary
350
66
  0
DICTIONARY
  5
109
330
FA
100
AcDbDictionary
280
     1
281
     1
  3
ACAD_DIMASSOC
360
114
  0
DICTIONARY
  5
16A
330
15C
100
AcDbDictionary
280
     1
281
     1
  3
ACAD_DIMASSOC
360
175
  0
DICTIONARY
  5
184
330
176
100
AcDbDictionary
280
     1
281
     1
  3
ACAD_DIMASSOC
360
18F
  0
DICTIONARY
  5
1A8
330
19A
100
AcDbDictionary
280
     1
281
     1
  3
ACAD_DIMASSOC
360
1B3
  0
DICTIONARY
  5
1EB
330
1DD
100
AcDbDictionary
280
     1
281
     1
  3
ACAD_DIMASSOC
360
1F6
  0
DICTIONARY
  5
205
330
1F7
100
AcDbDictionary
280
     1
281
     1
  3
ACAD_DIMASSOC
360
210
  0
DICTIONARY
  5
21F
330
211
100
AcDbDictionary
280
     1
281
     1
  3
ACAD_DIMASSOC
360
22A
  0
DICTIONARY
  5
239
330
22B
100
AcDbDictionary
280
     1
281
     1
  3
ACAD_DIMASSOC
360
244
  0
DICTIONARY
  5
253
330
245
100
AcDbDictionary
280
     1
281
     1
  3
ACAD_DIMASSOC
360
25E
  0
DICTIONARY
  5
277
330
269
100
AcDbDictionary
280
     1
281
     1
  3
ACAD_DIMASSOC
360
282
  0
DICTIONARY
  5
292
330
283
100
AcDbDictionary
280
     1
281
     1
  3
ACAD_DIMASSOC
360
29E
  0
DICTIONARY
  5
2AD
330
29F
100
AcDbDictionary
280
     1
281
     1
  3
ACAD_DIMASSOC
360
2B8
  0
DICTIONARY
  5
2CA
330
2C1
100
AcDbDictionary
280
     1
281
     1
  3
ACAD_DIMASSOC
360
2D0
  0
DICTIONARY
  5
30D
330
301
100
AcDbDictionary
280
     1
281
     1
  3
ACAD_DIMASSOC
360
316
  0
DICTIONARY
  5
353
330
345
100
AcDbDictionary
280
     1
281
     1
  3
ACAD_DIMASSOC
360
35E
  0
DICTIONARY
  5
375
330
366
100
AcDbDictionary
280
     1
281
     1
  3
ACAD_DIMASSOC
360
381
  0
DICTIONARY
  5
73
102
{ACAD_REACTORS
330
C
102
}
330
C
100
AcDbDictionary
281
     1
  0
DICTIONARY
  5
D
102
{ACAD_REACTORS
330
C
102
}
330
C
100
AcDbDictionary
281
     1
  0
DICTIONARY
  5
1A
102
{ACAD_REACTORS
330
C
102
}
330
C
100
AcDbDictionary
281
     1
  3
Layout1
350
59
  3
Layout2
350
5E
  3
Model
350
22
  0
DICTIONARY
  5
72
102
{ACAD_REACTORS
330
C
102
}
330
C
100
AcDbDictionary
281
     1
  0
DICTIONARY
  5
17
102
{ACAD_REACTORS
330
C
102
}
330
C
100
AcDbDictionary
281
     1
  3
Standard
350
18
  0
DICTIONARY
  5
19
102
{ACAD_REACTORS
330
C
102
}
330
C
100
AcDbDictionary
281
     1
  0
ACDBDICTIONARYWDFLT
  5
E
102
{ACAD_REACTORS
330
C
102
}
330
C
100
AcDbDictionary
281
     1
  3
Normal
350
F
100
AcDbDictionaryWithDefault
340
F
  0
DICTIONARY
  5
391
102
{ACAD_REACTORS
330
C
102
}
330
C
100
AcDbDictionary
281
     1
  3
COLORDICT
350
393
  3
MATERIALDICT
350
392
  0
DICTIONARY
  5
66
102
{ACAD_REACTORS
330
C
102
}
330
C
100
AcDbDictionary
281
     1
  3
DIMASSOC
350
67
  3
HIDETEXT
350
6B
  3
PROJECTNAME
350
38F
  0
DIMASSOC
  5
114
102
{ACAD_REACTORS
330
109
102
}
330
109
100
AcDbDimAssoc
330
FA
 90
        3
 70
     0
 71
     0
  1
AcDbOsnapPointRef
 72
     3
331
C8
 73
     2
 91
        0
 40
0.0
 10
0.0
 20
0.0
 30
0.0
 75
     0
  1
AcDbOsnapPointRef
 72
     3
331
A6
 73
     2
 91
        0
 40
0.0
 10
0.0
 20
0.0
 30
0.0
 75
     0
  0
DIMASSOC
  5
175
102
{ACAD_REACTORS
330
16A
102
}
330
16A
100
AcDbDimAssoc
330
15C
 90
        3
 70
     0
 71
     0
  1
AcDbOsnapPointRef
 72
    13
331
98
 73
     2
 91
        0
 40
0.0
 10
0.0
 20
0.0
 30
2.000000000000000E+50
 75
     0
  1
AcDbOsnapPointRef
 72
    13
331
99
 73
     2
 91
        0
 40
0.0
 10
0.0
 20
0.0
 30
2.000000000000000E+50
 75
     0
  0
DIMASSOC
  5
18F
102
{ACAD_REACTORS
330
184
102
}
330
184
100
AcDbDimAssoc
330
176
 90
        3
 70
     0
 71
     0
  1
AcDbOsnapPointRef
 72
     3
331
C8
 73
     2
 91
        0
 40
0.0
 10
0.0
 20
0.0
 30
0.0
 75
     0
  1
AcDbOsnapPointRef
 72
     3
331
C9
 73
     2
 91
        0
 40
0.0
 10
0.0
 20
0.0
 30
0.0
 75
     0
  0
DIMASSOC
  5
1B3
102
{ACAD_REACTORS
330
1A8
102
}
330
1A8
100
AcDbDimAssoc
330
19A
 90
        3
 70
     0
 71
     0
  1
AcDbOsnapPointRef
 72
     6
331
9A
 73
     2
 91
        3
 40
0.5215194465904564
 10
0.0
 20
0.0
 30
0.0
332
BD
 74
     2
 92
        0
 75
     0
  1
AcDbOsnapPointRef
 72
     6
331
90
 73
     2
 91
        0
 40
0.3986035435080562
 10
0.0
 20
0.0
 30
0.0
332
8F
 74
     2
 92
        0
 75
     0
  0
DIMASSOC
  5
1F6
102
{ACAD_REACTORS
330
1EB
102
}
330
1EB
100
AcDbDimAssoc
330
1DD
 90
        3
 70
     0
 71
     0
  1
AcDbOsnapPointRef
 72
     6
331
92
 73
     2
 91
        0
 40
0.2581750000000005
 10
0.0
 20
0.0
 30
0.0
332
C5
 74
     2
 92
        0
 75
     0
  1
AcDbOsnapPointRef
 72
     6
331
B1
 73
     2
 91
        0
 40
0.5499949510647115
 10
0.0
 20
0.0
 30
0.0
332
B3
 74
     2
 92
        0
 75
     0
  0
DIMASSOC
  5
210
102
{ACAD_REACTORS
330
205
102
}
330
205
100
AcDbDimAssoc
330
1F7
 90
        3
 70
     0
 71
     0
  1
AcDbOsnapPointRef
 72
     1
331
9D
 73
     2
 91
        2
 40
1.0
 10
0.0
 20
0.0
 30
2.000000000000000E+50
 75
     0
  1
AcDbOsnapPointRef
 72
     1
331
9D
 73
     2
 91
        3
 40
1.0
 10
0.0
 20
0.0
 30
2.000000000000000E+50
 75
     0
  0
DIMASSOC
  5
22A
102
{ACAD_REACTORS
330
21F
102
}
330
21F
100
AcDbDimAssoc
330
211
 90
        1
 70
     0
 71
     0
  1
AcDbOsnapPointRef
 72
    13
331
97
 73
     2
 91
        0
 40
0.0
 10
0.0
 20
0.0
 30
2.000000000000000E+50
 75
     0
  0
DIMASSOC
  5
244
102
{ACAD_REACTORS
330
239
102
}
330
239
100
AcDbDimAssoc
330
22B
 90
        3
 70
     0
 71
     0
  1
AcDbOsnapPointRef
 72
    13
331
CB
 73
     2
 91
        0
 40
0.0
 10
0.0
 20
0.0
 30
2.000000000000000E+50
 75
     0
  1
AcDbOsnapPointRef
 72
    13
331
CD
 73
     2
 91
        0
 40
0.0
 10
0.0
 20
0.0
 30
2.000000000000000E+50
 75
     0
  0
DIMASSOC
  5
25E
102
{ACAD_REACTORS
330
253
102
}
330
253
100
AcDbDimAssoc
330
245
 90
        2
 70
     0
 71
     0
  1
AcDbOsnapPointRef
 72
     6
331
9D
 73
     2
 91
        2
 40
0.0
 10
0.0
 20
0.0
 30
0.0
332
9A
 74
     2
 92
        1
 75
     0
  0
DIMASSOC
  5
282
102
{ACAD_REACTORS
330
277
102
}
330
277
100
AcDbDimAssoc
330
269
 90
        3
 70
     0
 71
     0
  1
AcDbOsnapPointRef
 72
    13
331
D4
 73
     2
 91
        0
 40
0.0
 10
0.0
 20
0.0
 30
2.000000000000000E+50
 75
     0
  1
AcDbOsnapPointRef
 72
    13
331
D5
 73
     2
 91
        0
 40
0.0
 10
0.0
 20
0.0
 30
2.000000000000000E+50
 75
     0
  0
DIMASSOC
  5
29E
102
{ACAD_REACTORS
330
292
102
}
330
292
100
AcDbDimAssoc
330
283
 90
        3
 70
     0
 71
     0
  1
AcDbOsnapPointRef
 72
     1
331
DE
 73
     2
 91
        0
 40
0.9999999999999998
 10
0.0
 20
0.0
 30
2.000000000000000E+50
 75
     0
  1
AcDbOsnapPointRef
 72
    13
331
DC
 73
     2
 91
        0
 40
0.0
 10
0.0
 20
0.0
 30
2.000000000000000E+50
 75
     0
  0
DIMASSOC
  5
2B8
102
{ACAD_REACTORS
330
2AD
102
}
330
2AD
100
AcDbDimAssoc
330
29F
 90
        3
 70
     0
 71
     0
  1
AcDbOsnapPointRef
 72
     3
331
C9
 73
     2
 91
        0
 40
0.0
 10
0.0
 20
0.0
 30
0.0
 75
     0
  1
AcDbOsnapPointRef
 72
     3
331
A5
 73
     2
 91
        0
 40
0.0
 10
0.0
 20
0.0
 30
0.0
 75
     0
  0
DIMASSOC
  5
2D0
102
{ACAD_REACTORS
330
2CA
102
}
330
2CA
100
AcDbDimAssoc
330
2C1
 90
        2
 70
     0
 71
     0
  1
AcDbOsnapPointRef
 72
     3
331
94
 73
     2
 91
        0
 40
0.0
 10
0.0
 20
0.0
 30
0.0
 75
     0
  0
DIMASSOC
  5
316
102
{ACAD_REACTORS
330
30D
102
}
330
30D
100
AcDbDimAssoc
330
301
 90
        2
 70
     0
 71
     0
  1
AcDbOsnapPointRef
 72
     3
331
A6
 73
     2
 91
        0
 40
0.0
 10
0.0
 20
0.0
 30
0.0
 75
     0
  0
DIMASSOC
  5
35E
102
{ACAD_REACTORS
330
353
102
}
330
353
100
AcDbDimAssoc
330
345
 90
        1
 70
     0
 71
     0
  1
AcDbOsnapPointRef
 72
    13
331
CD
 73
     2
 91
        0
 40
0.0
 10
0.0
 20
0.0
 30
2.000000000000000E+50
 75
     0
  0
DIMASSOC
  5
381
102
{ACAD_REACTORS
330
375
102
}
330
375
100
AcDbDimAssoc
330
366
 90
        3
 70
     0
 71
     0
  1
AcDbOsnapPointRef
 72
    13
331
CD
 73
     2
 91
        0
 40
0.0
 10
0.0
 20
0.0
 30
2.000000000000000E+50
 75
     0
  1
AcDbOsnapPointRef
 72
     1
331
CD
 73
     2
 91
        0
 40
1.0
 10
0.0
 20
0.0
 30
2.000000000000000E+50
 75
     0
  0
LAYOUT
  5
59
102
{ACAD_XDICTIONARY
360
396
102
}
102
{ACAD_REACTORS
330
1A
102
}
330
1A
100
AcDbPlotSettings
  1

  2
None
  4

  6

 40
0.0
 41
0.0
 42
0.0
 43
0.0
 44
0.0
 45
0.0
 46
0.0
 47
0.0
 48
0.0
 49
0.0
140
0.0
141
0.0
142
1.0
143
1.0
 70
   688
 72
     0
 73
     0
 74
     5
  7

 75
    16
147
1.0
148
0.0
149
0.0
100
AcDbLayout
  1
Layout1
 70
     1
 71
     1
 10
0.0
 20
0.0
 11
12.0
 21
9.0
 12
0.0
 22
0.0
 32
0.0
 14
0.0
 24
0.0
 34
0.0
 15
0.0
 25
0.0
 35
0.0
146
0.0
 13
0.0
 23
0.0
 33
0.0
 16
1.0
 26
0.0
 36
0.0
 17
0.0
 27
1.0
 37
0.0
 76
     0
330
58
  0
LAYOUT
  5
5E
102
{ACAD_XDICTIONARY
360
398
102
}
102
{ACAD_REACTORS
330
1A
102
}
330
1A
100
AcDbPlotSettings
  1

  2
None
  4

  6

 40
0.0
 41
0.0
 42
0.0
 43
0.0
 44
0.0
 45
0.0
 46
0.0
 47
0.0
 48
0.0
 49
0.0
140
0.0
141
0.0
142
1.0
143
1.0
 70
   688
 72
     0
 73
     0
 74
     5
  7

 75
    16
147
1.0
148
0.0
149
0.0
100
AcDbLayout
  1
Layout2
 70
     1
 71
     2
 10
0.0
 20
0.0
 11
12.0
 21
9.0
 12
0.0
 22
0.0
 32
0.0
 14
0.0
 24
0.0
 34
0.0
 15
0.0
 25
0.0
 35
0.0
146
0.0
 13
0.0
 23
0.0
 33
0.0
 16
1.0
 26
0.0
 36
0.0
 17
0.0
 27
1.0
 37
0.0
 76
     0
330
5D
  0
LAYOUT
  5
22
102
{ACAD_XDICTIONARY
360
394
102
}
102
{ACAD_REACTORS
330
1A
102
}
330
1A
100
AcDbPlotSettings
  1

  2
CutePDF Writer
  4
User32767
  6

 40
3.174999952316284
 41
3.174999952316284
 42
3.175003051757812
 43
3.17498779296875
 44
215.9000091552734
 45
279.3999938964844
 46
0.0
 47
0.0
 48
0.0
 49
0.0
140
0.0
141
0.0
142
1.0
143
33.48837133860595
 70
 11952
 72
     0
 73
     1
 74
     2
  7

 75
     0
147
0.0298611117838145
148
-1270.0
149
762.0
100
AcDbLayout
  1
Model
 70
     1
 71
     0
 10
0.0
 20
0.0
 11
12.0
 21
9.0
 12
0.0
 22
0.0
 32
0.0
 14
0.0
 24
0.0
 34
0.0
 15
0.0
 25
0.0
 35
0.0
146
0.0
 13
0.0
 23
0.0
 33
0.0
 16
1.0
 26
0.0
 36
0.0
 17
0.0
 27
1.0
 37
0.0
 76
     0
330
1F
  0
MLINESTYLE
  5
18
102
{ACAD_REACTORS
330
17
102
}
330
17
100
AcDbMlineStyle
  2
STANDARD
 70
     0
  3

 62
   256
 51
90.0
 52
90.0
 71
     2
 49
0.5
 62
   256
  6
BYLAYER
 49
-0.5
 62
   256
  6
BYLAYER
  0
ACDBPLACEHOLDER
  5
F
102
{ACAD_REACTORS
330
E
102
}
330
E
  0
XRECORD
  5
393
102
{ACAD_REACTORS
330
391
102
}
330
391
100
AcDbXrecord
280
     1
340
73
  0
XRECORD
  5
392
102
{ACAD_REACTORS
330
391
102
}
330
391
100
AcDbXrecord
280
     1
340
72
  0
DICTIONARYVAR
  5
67
102
{ACAD_REACTORS
330
66
102
}
330
66
100
DictionaryVariables
280
     0
  1
2
  0
DICTIONARYVAR
  5
6B
102
{ACAD_REACTORS
330
66
102
}
330
66
100
DictionaryVariables
280
     0
  1
1
  0
DICTIONARYVAR
  5
38F
102
{ACAD_REACTORS
330
66
102
}
330
66
100
DictionaryVariables
280
     0
  1

  0
DICTIONARY
  5
396
330
59
100
AcDbDictionary
280
     1
281
     1
  3
ACAD_XREC_ROUNDTRIP
360
397
  0
DICTIONARY
  5
398
330
5E
100
AcDbDictionary
280
     1
281
     1
  3
ACAD_XREC_ROUNDTRIP
360
399
  0
DICTIONARY
  5
394
330
22
100
AcDbDictionary
280
     1
281
     1
  3
ACAD_XREC_ROUNDTRIP
360
395
  0
XRECORD
  5
397
102
{ACAD_REACTORS
330
396
102
}
330
396
100
AcDbXrecord
280
     1
102
SHADEPLOT
 70
     0
102
SHADEPLOTRESLEVEL
 70
     2
102
SHADEPLOTCUSTOMDPI
 70
   300
  0
XRECORD
  5
399
102
{ACAD_REACTORS
330
398
102
}
330
398
100
AcDbXrecord
280
     1
102
SHADEPLOT
 70
     0
102
SHADEPLOTRESLEVEL
 70
     2
102
SHADEPLOTCUSTOMDPI
 70
   300
  0
XRECORD
  5
395
102
{ACAD_REACTORS
330
394
102
}
330
394
100
AcDbXrecord
280
     1
102
SHADEPLOT
 70
     0
102
SHADEPLOTRESLEVEL
 70
     2
102
SHADEPLOTCUSTOMDPI
 70
   300
  0
ENDSEC
  0
EOF
